<svg width="482" height="697" viewBox="0 0 482 697" fill="none" xmlns="http://www.w3.org/2000/svg">
<g clip-path="url(#clip0)">
<path d="M76.1117 219.161C-2.53459 254.256 -37.9662 346.79 -2.87168 425.436C32.2228 504.082 124.758 539.515 203.403 504.42C282.049 469.326 317.482 376.791 282.387 298.144C247.293 219.498 154.758 184.067 76.1117 219.161ZM195.003 485.595C126.736 516.057 46.4144 485.302 15.9518 417.035C-14.5104 348.77 16.2443 268.448 84.5115 237.985C152.778 207.523 233.099 238.277 263.562 306.544C294.025 374.81 263.269 455.132 195.003 485.595Z" fill="#E0E0E0"/>
<path d="M203.658 278.107C199.131 274.656 192.665 275.528 189.213 280.055C189.098 280.207 188.999 280.366 188.893 280.522C185.837 285.017 186.786 291.165 191.161 294.5C202.341 303.023 211.3 314.363 217.069 327.291C236.092 369.921 216.886 420.079 174.256 439.102C131.626 458.125 81.468 438.918 62.4456 396.289C43.4229 353.66 62.6286 303.501 105.258 284.479C109.349 282.653 113.598 281.143 117.887 279.991C123.207 278.563 126.409 273.234 125.285 267.917C125.247 267.732 125.215 267.547 125.165 267.362C123.687 261.865 118.033 258.605 112.536 260.083C107.207 261.516 101.931 263.39 96.8572 265.654C43.8484 289.309 19.9652 351.68 43.6199 404.69C67.2745 457.7 129.646 481.582 182.656 457.927C235.665 434.273 259.548 371.9 235.894 318.891C228.722 302.819 217.575 288.716 203.658 278.107Z" fill="#E0E0E0"/>
<path d="M164.797 256.303C164.171 256.064 163.514 255.883 162.846 255.775C162.186 255.663 161.51 255.614 160.831 255.635C160.161 255.652 159.488 255.738 158.831 255.884C157.508 256.181 156.256 256.74 155.151 257.527C154.603 257.918 154.099 258.357 153.63 258.848C153.171 259.336 152.755 259.871 152.398 260.437C152.031 261.007 151.728 261.616 151.478 262.247C151.239 262.873 151.067 263.525 150.95 264.198C150.838 264.858 150.79 265.534 150.81 266.213C150.82 266.635 150.867 267.056 150.932 267.476C150.969 267.722 151.006 267.969 151.06 268.212C151.207 268.868 151.427 269.514 151.7 270.126C151.977 270.747 152.307 271.335 152.703 271.892C153.094 272.44 153.533 272.944 154.024 273.412C154.512 273.873 155.047 274.288 155.613 274.645C156.192 275.008 156.792 275.316 157.418 275.555C158.054 275.791 158.71 275.972 159.384 276.089C160.043 276.201 160.719 276.25 161.389 276.233C162.068 276.212 162.731 276.13 163.388 275.984C164.055 275.833 164.701 275.612 165.313 275.339C165.924 275.066 166.52 274.732 167.069 274.342C167.617 273.951 168.13 273.507 168.589 273.02C168.992 272.597 169.346 272.139 169.667 271.661C169.72 271.582 169.78 271.507 169.83 271.428C170.193 270.848 170.496 270.239 170.736 269.613C170.976 268.986 171.157 268.33 171.265 267.661C171.377 267.002 171.425 266.325 171.408 265.655C171.387 264.977 171.302 264.304 171.159 263.656C171.009 262.99 170.801 262.348 170.524 261.726C169.419 259.251 167.329 257.272 164.797 256.303Z" fill="#E0E0E0"/>
<path d="M440.344 389.298L298.872 154.297C289.026 137.941 276.244 123.899 260.881 112.563C251.45 105.603 241.177 99.8019 230.349 95.3202L229.14 94.8199C219.915 91.001 209.746 93.4238 203.23 100.994C196.715 108.562 195.834 118.981 200.985 127.536L380.319 425.434C380.895 426.391 381.509 427.31 382.16 428.191C391.912 441.405 409.664 446.03 424.585 439.37C425.879 438.793 427.155 438.129 428.399 437.38C438.225 431.465 444.106 421.458 445.176 410.84C445.289 409.721 445.349 408.598 445.353 407.47C445.358 406.343 445.309 405.214 445.205 404.084C444.736 399.005 443.145 393.952 440.344 389.298ZM218.646 116.903C218.432 116.547 217.859 115.595 218.855 114.439C219.127 114.122 219.402 113.924 219.666 113.806C220.363 113.495 220.98 113.75 221.257 113.866L222.465 114.366C231.751 118.209 240.557 123.182 248.642 129.148C261.812 138.867 272.771 150.905 281.212 164.928L356.612 290.175L331.908 305.046L218.646 116.903ZM424.733 406.712C424.956 411.822 422.451 416.899 417.769 419.717C410.957 423.825 402.081 421.613 397.981 414.802L342.54 322.707L367.244 307.836L422.684 399.93C423.965 402.057 424.63 404.389 424.733 406.712Z" fill="#E0E0E0"/>
<path d="M-68.7932 230.763C-74.2389 232.43 -77.294 238.197 -75.6254 243.639L-53.0748 317.178C-49.5609 328.64 -54.6839 340.755 -65.2548 346.267L-71.8362 348.285L-101.493 251.572C-103.161 246.131 -108.926 243.071 -114.369 244.739C-119.815 246.403 -122.87 252.173 -121.201 257.615L-91.5447 354.328L-98.1318 356.349C-109.974 357.708 -121.006 350.547 -124.521 339.087L-147.071 265.548C-148.739 260.107 -154.504 257.047 -159.947 258.715C-165.392 260.377 -168.448 266.15 -166.779 271.591L-144.229 345.13C-138.586 363.529 -122.385 375.912 -103.866 377.054L-43.9311 597.415C-43.9248 597.44 -43.9176 597.466 -43.9109 597.491C-41.2799 606.88 -35.118 614.626 -26.5613 619.301C-18.0046 623.976 -8.15733 624.977 1.15725 622.12L1.3378 622.065C2.77642 621.624 4.17442 621.099 5.5251 620.496C12.9694 617.175 19.0025 611.464 22.7747 604.079C27.2318 595.353 27.944 585.441 24.78 576.167L-48.8965 360.2C-34.1993 348.873 -27.7222 329.536 -33.3653 311.135L-55.9159 237.596C-57.5855 232.154 -63.3503 229.095 -68.7932 230.763ZM5.27193 582.824C6.61779 586.771 6.31474 590.988 4.41802 594.703C2.5213 598.417 -0.712777 601.14 -4.69768 602.355L-4.87822 602.411C-8.84524 603.628 -13.0362 603.202 -16.6772 601.212C-20.3097 599.228 -22.9277 595.944 -24.0519 591.962L-83.4899 373.421L-75.6556 371.019C-75.6518 371.017 -75.6485 371.017 -75.6444 371.016C-75.6415 371.015 -75.6387 371.013 -75.6359 371.012L-67.8076 368.611L5.27193 582.824Z" fill="#E0E0E0"/>
</g>
<defs>
<clipPath id="clip0">
<rect width="527.719" height="527.719" fill="white" transform="translate(-215 215.046) rotate(-24.048)"/>
</clipPath>
</defs>
</svg>
