<svg width="40" height="40" viewBox="0 0 40 40" fill="none" xmlns="http://www.w3.org/2000/svg">
<g clip-path="url(#clip0)">
<path d="M39.9229 21.8477C39.5637 18.2353 37.9499 14.8297 35.3784 12.2581C33.1809 10.0607 30.4912 8.64854 27.661 8.02064V6.03561C28.8169 5.74802 29.6762 4.70168 29.6762 3.45799C29.6762 1.99328 28.4846 0.801697 27.0199 0.801697H21.3948C19.9301 0.801697 18.7385 1.99328 18.7385 3.45799C18.7385 4.7016 19.5977 5.74795 20.7536 6.03561V8.02618C17.9321 8.65674 15.2513 10.0669 13.06 12.2582C12.5804 12.7377 12.1382 13.2408 11.7335 13.7636C11.7139 13.7621 11.6942 13.7607 11.6742 13.7607H6.10689C5.67548 13.7607 5.32563 14.1104 5.32563 14.5419C5.32563 14.9734 5.67548 15.3232 6.10689 15.3232H10.6704C10.0976 16.2822 9.6357 17.2893 9.28413 18.326H0.781262C0.349849 18.326 0 18.6758 0 19.1073C0 19.5388 0.349849 19.8886 0.781262 19.8886H8.84264C8.61748 20.8769 8.48826 21.8828 8.4549 22.8915H5.00008C4.56867 22.8915 4.21882 23.2413 4.21882 23.6728C4.21882 24.1042 4.56867 24.454 5.00008 24.454H8.47982C8.54576 25.4653 8.70834 26.4712 8.96764 27.457H3.90631C3.4749 27.457 3.12505 27.8067 3.12505 28.2382C3.12505 28.6697 3.4749 29.0195 3.90631 29.0195H9.46624C10.2327 31.0469 11.4304 32.9472 13.06 34.5768C15.6339 37.1507 19.043 38.7649 22.6592 39.1222C23.1753 39.1732 23.6918 39.1984 24.2076 39.1984C27.2562 39.1984 30.2661 38.3161 32.82 36.653C33.1816 36.4175 33.2839 35.9335 33.0484 35.5719C32.8129 35.2104 32.3289 35.1081 31.9674 35.3436C26.3769 38.984 18.8898 38.1969 14.1648 33.4719C8.62084 27.9279 8.62084 18.9072 14.1648 13.3631C19.7087 7.81923 28.7294 7.81923 34.2735 13.3631C38.9922 18.082 39.7837 25.5626 36.1553 31.1504C35.9202 31.5123 36.0231 31.9962 36.3849 32.2311C36.747 32.4661 37.2307 32.3632 37.4657 32.0013C39.4043 29.0157 40.277 25.4098 39.9229 21.8477ZM20.301 3.45807C20.301 2.85493 20.7917 2.3643 21.3948 2.3643H27.0199C27.623 2.3643 28.1136 2.85493 28.1136 3.45807C28.1136 4.0612 27.623 4.55183 27.0199 4.55183H26.8797H21.5349H21.3948C20.7917 4.55183 20.301 4.06112 20.301 3.45807ZM22.3161 7.75759V6.11436H26.0985V7.75477C24.8425 7.6054 23.5719 7.60633 22.3161 7.75759Z" fill="white"/>
<path d="M34.8262 33.2427C34.6199 33.2427 34.4191 33.3263 34.2739 33.4716C34.1278 33.6169 34.0449 33.8185 34.0449 34.0239C34.0449 34.2294 34.1278 34.431 34.2739 34.5763C34.4191 34.7224 34.62 34.8052 34.8262 34.8052C35.0316 34.8052 35.2324 34.7224 35.3785 34.5763C35.5238 34.431 35.6074 34.2294 35.6074 34.0239C35.6074 33.8185 35.5239 33.6169 35.3785 33.4716C35.2324 33.3263 35.0316 33.2427 34.8262 33.2427Z" fill="white"/>
<path d="M24.219 11.2977C17.5362 11.2977 12.0994 16.7345 12.0994 23.4174C12.0994 30.1002 17.5362 35.537 24.219 35.537C30.9018 35.537 36.3386 30.1002 36.3386 23.4174C36.3386 16.7345 30.9018 11.2977 24.219 11.2977ZM24.219 33.9745C18.3977 33.9745 13.6619 29.2386 13.6619 23.4174C13.6619 17.5962 18.3977 12.8603 24.219 12.8603C30.0403 12.8603 34.7761 17.5962 34.7761 23.4174C34.7761 29.2386 30.0403 33.9745 24.219 33.9745Z" fill="white"/>
<path d="M29.1614 17.3705L25.2918 21.2401C24.9682 21.08 24.6042 20.9897 24.2195 20.9897C23.8346 20.9897 23.4707 21.08 23.1471 21.2401L21.4153 19.5082C21.1101 19.2031 20.6156 19.2031 20.3104 19.5082C20.0053 19.8133 20.0053 20.308 20.3104 20.6131L22.0422 22.3449C21.8821 22.6685 21.7918 23.0325 21.7918 23.4173C21.7918 24.7559 22.8808 25.845 24.2195 25.845C25.5582 25.845 26.6472 24.7559 26.6472 23.4173C26.6472 23.0325 26.5568 22.6685 26.3968 22.3449L30.1528 18.5889L30.2663 18.4754C30.5714 18.1703 30.5714 17.6756 30.2663 17.3705C29.9612 17.0655 29.4667 17.0655 29.1614 17.3705ZM24.2195 24.2825C23.7424 24.2825 23.3543 23.8944 23.3543 23.4174C23.3543 22.9403 23.7424 22.5522 24.2195 22.5522C24.6965 22.5522 25.0846 22.9403 25.0846 23.4174C25.0846 23.8944 24.6965 24.2825 24.2195 24.2825Z" fill="white"/>
<path d="M32.5725 22.6456H31.8486C31.4172 22.6456 31.0674 22.9954 31.0674 23.4269C31.0674 23.8584 31.4172 24.2081 31.8486 24.2081H32.5725C33.0039 24.2081 33.3537 23.8584 33.3537 23.4269C33.3537 22.9954 33.0039 22.6456 32.5725 22.6456Z" fill="white"/>
<path d="M16.5897 22.6266H15.866C15.4346 22.6266 15.0847 22.9764 15.0847 23.4078C15.0847 23.8393 15.4346 24.1891 15.866 24.1891H16.5897C17.0211 24.1891 17.371 23.8393 17.371 23.4078C17.371 22.9764 17.0211 22.6266 16.5897 22.6266Z" fill="white"/>
<path d="M24.2285 16.5691C24.6599 16.5691 25.0098 16.2194 25.0098 15.7879V15.0641C25.0098 14.6327 24.6599 14.2829 24.2285 14.2829C23.7971 14.2829 23.4473 14.6327 23.4473 15.0641V15.7879C23.4473 16.2194 23.7971 16.5691 24.2285 16.5691Z" fill="white"/>
<path d="M24.2095 30.2655C23.7781 30.2655 23.4282 30.6153 23.4282 31.0468V31.7705C23.4282 32.202 23.7781 32.5518 24.2095 32.5518C24.6409 32.5518 24.9907 32.202 24.9907 31.7705V31.0468C24.9907 30.6153 24.6409 30.2655 24.2095 30.2655Z" fill="white"/>
<path d="M0.78125 27.4567C0.575781 27.4567 0.374219 27.5403 0.228906 27.6856C0.0835938 27.8309 0 28.0324 0 28.2379C0 28.4442 0.0835156 28.6449 0.228906 28.7903C0.374297 28.9356 0.575781 29.0192 0.78125 29.0192C0.986719 29.0192 1.18828 28.9356 1.33352 28.7903C1.47883 28.6449 1.5625 28.4434 1.5625 28.2379C1.5625 28.0324 1.47891 27.8309 1.33352 27.6856C1.18828 27.5403 0.986719 27.4567 0.78125 27.4567Z" fill="white"/>
</g>
<defs>
<clipPath id="clip0">
<rect width="40" height="40" fill="white"/>
</clipPath>
</defs>
</svg>
