<svg width="40" height="40" viewBox="0 0 40 40" fill="none" xmlns="http://www.w3.org/2000/svg">
<path d="M34.1413 5.86296C30.3645 2.086 25.3428 0.00592609 20.0013 0.00592609C15.3582 0.00592609 10.8599 1.62327 7.28775 4.56772L3.28408 0.564051C2.88432 0.163817 2.33104 -0.0393083 1.76682 0.00631671C1.20268 0.0520198 0.688066 0.344442 0.354629 0.808504C-0.18623 1.56139 -0.0744336 2.6489 0.614785 3.33804L4.56611 7.28936C1.62104 10.8623 0.00439453 15.3572 0.00439453 20.003C0.00439453 25.3444 2.08447 30.3662 5.86143 34.143C9.6383 37.92 14.6599 40 20.0013 40C25.3428 40 30.3644 37.9199 34.1413 34.143C37.9183 30.3661 39.9984 25.3444 39.9984 20.003C39.9984 14.6615 37.9183 9.63983 34.1413 5.86296ZM1.44338 2.50936C1.16025 2.22616 1.1001 1.77944 1.30643 1.49218C1.44064 1.30538 1.63775 1.19249 1.8615 1.17436C2.08197 1.15655 2.29877 1.23585 2.45518 1.39249L10.2592 9.19655C11.6589 10.5962 13.5006 11.4918 15.6178 11.8138C14.0031 12.6789 12.6761 14.0048 11.8118 15.6173C11.4895 13.501 10.5941 11.6601 9.19486 10.2609L1.44338 2.50936ZM27.0688 13.0841L27.7979 13.7025L27.0713 14.1437C26.8047 14.3055 26.6195 14.5619 26.5495 14.8656C26.4795 15.1694 26.5339 15.481 26.7028 15.743L27.3089 16.6839C27.6476 17.2095 28.3315 17.3672 28.8661 17.0426L29.5672 16.6169L29.7794 17.5491C29.8212 17.7328 29.9488 17.8851 30.1222 17.9586C30.1955 17.9896 30.2732 18.005 30.3507 18.005C30.4565 18.005 30.5619 17.9763 30.6549 17.9199C30.7739 17.8476 30.8869 17.7681 30.9947 17.6833C31.939 17.8746 33.6171 18.2465 34.7357 18.5327C34.7888 19.0675 34.8122 19.6073 34.8069 20.15C33.2846 19.6628 31.7917 19.3713 30.4573 19.1114C28.4679 18.7237 26.5537 18.2436 26.0222 17.3633C25.5549 16.5889 25.5447 15.4917 25.6797 13.9726C25.7871 12.7643 25.8682 10.9448 25.3355 9.10155C24.9201 7.66429 24.2045 6.47304 23.1996 5.5385C24.1515 5.74913 25.0866 6.05546 25.9905 6.45624C26.8964 7.97014 27.3255 9.80264 27.2999 12.0472C27.2474 12.0754 27.1953 12.105 27.1437 12.1363C26.9827 12.2341 26.8785 12.4033 26.8637 12.591C26.8488 12.7788 26.9252 12.9623 27.0688 13.0841ZM28.5912 12.8387C29.4396 12.7205 30.3175 13.1033 30.7894 13.8807C31.2613 14.658 31.1959 15.6137 30.6996 16.3118C30.616 15.9578 30.3669 15.6625 30.0317 15.5205C29.8889 15.4601 29.7371 15.4301 29.5856 15.4301C29.3785 15.4301 29.172 15.4861 28.9907 15.5961L28.2803 16.0274L27.7028 15.1312L28.4377 14.6851C28.7515 14.4945 28.9562 14.1623 28.9851 13.7963C29.0136 13.4333 28.8666 13.0762 28.5912 12.8387ZM31.8598 16.6662C32.0028 16.4067 32.1132 16.1271 32.1855 15.8316C32.2362 15.6241 32.2664 15.4149 32.2778 15.2062C32.8484 15.3215 33.475 15.4562 34.1473 15.6221C34.3153 16.1654 34.452 16.7188 34.5566 17.2798C33.6991 17.0698 32.6719 16.8389 31.8598 16.6662ZM11.876 22.4144C11.5999 22.4417 11.3185 22.4165 11.044 22.3373C10.4766 22.1736 10.0069 21.7987 9.72143 21.2816C9.43596 20.7646 9.36893 20.1673 9.53268 19.5999C9.61189 19.3254 9.74057 19.0737 9.9108 18.8548C9.97939 19.2125 10.2163 19.5185 10.5459 19.6744C10.8778 19.8314 11.2678 19.8192 11.5892 19.6417L12.3168 19.24L12.8569 20.1592L12.1043 20.5747C11.7829 20.7521 11.5648 21.0757 11.5208 21.4402C11.4771 21.8022 11.6099 22.1658 11.876 22.4144ZM8.8526 13.9258C9.21533 13.7425 9.5926 13.5823 9.97564 13.4453C10.1767 13.8955 10.341 14.3705 10.4671 14.8669C10.1476 14.9823 9.83408 15.1166 9.53166 15.2694C7.22096 16.4376 6.01525 18.4244 5.19979 20.6052C5.14619 19.2967 5.26564 17.9826 5.55877 16.6994C5.56205 16.6952 5.56572 16.6916 5.56893 16.6873C6.45963 15.4958 7.53369 14.5926 8.8526 13.9258ZM6.40189 14.1255C6.87939 13.0229 7.49783 11.9658 8.25713 10.9805L8.36619 11.0895C8.76291 11.4862 9.11205 11.9259 9.41439 12.4015C9.04275 12.5412 8.67729 12.7013 8.32385 12.88C7.624 13.2338 6.98627 13.6475 6.40189 14.1255ZM10.0603 16.3152C10.2646 16.212 10.4749 16.1194 10.6888 16.0358C10.7066 16.175 10.7221 16.3151 10.7343 16.4569C10.7488 16.6241 10.7715 16.7937 10.8016 16.961C10.8474 17.2159 10.9139 17.4698 10.9988 17.7162C10.9775 17.8001 10.9578 17.8846 10.9388 17.9694L10.8813 17.6579C10.8471 17.4726 10.7259 17.3152 10.5556 17.2347C10.3853 17.1541 10.1868 17.1603 10.0219 17.2514C9.23088 17.6881 8.65721 18.4068 8.40666 19.275C8.31416 19.5953 8.27018 19.9219 8.27291 20.2462C7.76916 21.2148 7.42111 22.3076 7.12205 23.3511C7.03283 23.6622 7.21275 23.9866 7.52385 24.0758C7.57775 24.0912 7.63213 24.0986 7.68557 24.0986C7.94033 24.0986 8.17479 23.9311 8.24854 23.674C8.40189 23.1389 8.57713 22.5613 8.78439 21.9997C9.09049 22.493 9.51143 22.8917 10.0106 23.1685C9.81369 23.7183 9.61549 24.3648 9.38439 25.2084C9.06494 26.3749 8.7108 27.6679 8.21471 28.9641C6.90971 27.2533 6.02658 25.3269 5.56525 23.324C6.37924 20.4139 7.33947 17.6907 10.0603 16.3152ZM21.2974 11.0601L21.4736 11.8724L20.4381 12.1262L20.2559 11.2861C20.178 10.9273 19.9306 10.6255 19.5941 10.4789C19.4482 10.4154 19.2924 10.3839 19.137 10.3839C18.9363 10.3839 18.7362 10.4364 18.5589 10.5399C18.6118 10.2676 18.7167 10.0051 18.8713 9.76483C19.1909 9.26819 19.6847 8.92569 20.2619 8.80054C21.1506 8.60772 22.0328 8.98108 22.531 9.67772C22.1687 9.64147 21.8087 9.78069 21.5653 10.0512C21.3197 10.3242 21.2196 10.7013 21.2974 11.0601ZM21.4992 18.1573L22.0769 18.995C22.1012 19.0302 22.0931 19.0775 22.0586 19.1027L20.9851 19.8862C20.9674 19.899 20.9475 19.9038 20.9258 19.9001C20.9042 19.8964 20.8869 19.8854 20.8745 19.8673L20.2766 19.0004C20.0491 18.6705 19.6741 18.4685 19.2735 18.4601C19.2649 18.46 19.2562 18.4599 19.2476 18.4599C18.8563 18.4599 18.4845 18.6449 18.2486 18.9582L18.116 19.1342C17.7951 18.033 18.1942 16.8011 19.1889 16.1151C20.1837 15.4291 21.477 15.4941 22.3922 16.1854L22.1805 16.2467C21.7956 16.3582 21.4854 16.6501 21.3508 17.0276C21.2162 17.4051 21.2717 17.8274 21.4992 18.1573ZM19.6918 20.2168C19.3789 20.2384 19.0644 20.2452 18.7505 20.2398L19.1847 19.663C19.2007 19.6418 19.2227 19.6312 19.2489 19.6319C19.2755 19.6324 19.2967 19.6438 19.3117 19.6657L19.6918 20.2168ZM19.1184 11.5705L19.2986 12.4013C19.3647 12.7059 19.5467 12.9647 19.811 13.1299C19.9956 13.2452 20.2035 13.3044 20.4153 13.3044C20.5017 13.3044 20.5886 13.2937 20.6749 13.2738C20.0072 14.7021 19.2085 15.0535 17.0592 14.6989C16.1761 14.5531 15.2063 14.3937 14.1752 14.3515C15.201 13.294 16.5131 12.5156 17.9904 12.1393C18.2858 12.0573 18.3574 12.0215 18.4792 11.9497L19.1184 11.5705ZM16.8685 15.8551C17.1499 15.9015 17.4148 15.9358 17.6648 15.9585C17.3288 16.3883 17.0924 16.8794 16.9601 17.3957C16.8482 17.3775 16.7361 17.3591 16.6236 17.3405C15.9981 17.2373 15.3514 17.1306 14.7017 17.0696C14.3798 17.0393 14.0938 17.2759 14.0635 17.5981C14.0332 17.9203 14.2699 18.206 14.5921 18.2363C15.201 18.2936 15.8273 18.3969 16.4328 18.4968C16.5694 18.5194 16.7055 18.5417 16.8411 18.5636C16.8673 19.0999 17.0045 19.6354 17.2583 20.1348C16.8939 20.0922 16.5357 20.0396 16.1875 19.9822C15.4566 19.8616 14.6905 19.7559 13.9646 19.7657C13.9417 19.7053 13.9146 19.646 13.8811 19.5891L13.3142 18.6241C13.0611 18.1934 12.5783 17.9893 12.1152 18.0783C12.3399 17.1537 12.7232 16.2919 13.2336 15.5219C14.5176 15.468 15.7642 15.6728 16.8685 15.8551ZM13.4471 21.1719C13.5555 21.1121 13.651 21.0362 13.7328 20.9484C14.4356 20.905 15.267 21.018 15.9967 21.1384C16.6624 21.2483 17.7134 21.4217 18.9161 21.4217C21.0451 21.4217 23.6475 20.8761 25.4216 18.4723C25.7312 18.7751 26.1324 19.0301 26.6195 19.2524C23.3296 23.8737 18.2417 23.0346 15.7515 22.6237L14.7605 22.4604C14.3481 22.3926 13.9435 22.4571 13.5927 22.6257C13.5835 22.4762 13.5181 22.3341 13.406 22.2307L12.7029 21.5828L13.4471 21.1719ZM24.5124 13.8687C24.3835 15.3203 24.3831 16.4587 24.7442 17.4019C24.7278 17.4211 24.7121 17.4411 24.6978 17.4629C24.278 18.1071 23.7936 18.6129 23.2641 19.0061C23.2574 18.7726 23.185 18.5379 23.0415 18.3297L22.4638 17.4919C22.4487 17.4701 22.4456 17.4462 22.4545 17.4212C22.4634 17.3962 22.4809 17.3798 22.5065 17.3723L23.6389 17.0443C23.8198 16.9919 23.9645 16.8557 24.0278 16.6783C24.0911 16.5008 24.0653 16.3039 23.9583 16.1488C23.3217 15.2256 22.3556 14.6626 21.3256 14.5065C21.6208 14.058 21.8685 13.5107 22.1049 12.8683C22.5108 12.6213 22.7309 12.1406 22.6242 11.6491L22.4503 10.8476L23.4008 10.9508C23.5881 10.971 23.7736 10.9002 23.8996 10.7602C24.0256 10.6202 24.0766 10.4282 24.0367 10.2441C23.7645 8.98944 22.8246 8.04827 21.6707 7.71225C20.9942 7.08413 20.0861 6.60827 18.8953 6.25889C18.097 6.0246 17.5196 5.72593 17.1263 5.46944C18.2707 5.2435 19.4362 5.15405 20.5973 5.20116C20.6086 5.20741 20.6198 5.21382 20.6316 5.21936C23.6353 6.62475 24.9047 9.45397 24.5124 13.8687ZM18.5653 7.38335C18.9536 7.49725 19.3039 7.62475 19.6189 7.76679C19.0269 7.97147 18.5088 8.33335 18.1127 8.81921C17.0286 8.48866 15.1432 7.58468 13.9308 6.48819C14.5083 6.22827 15.0988 6.00725 15.6982 5.82538C16.0455 6.16999 16.9324 6.90421 18.5653 7.38335ZM17.5302 9.86218C17.4156 10.1936 17.3545 10.5398 17.3478 10.8905C17.2192 10.8567 17.0896 10.8268 16.9594 10.8033C16.7923 10.7732 16.6227 10.7505 16.4553 10.736C14.3061 10.5491 12.4501 9.73015 11.0878 8.36788L10.9788 8.25882C11.5688 7.80405 12.1846 7.3996 12.8206 7.04593C14.1337 8.38991 16.2746 9.43358 17.5302 9.86218ZM33.3128 33.3144C29.7571 36.87 25.0297 38.8281 20.0013 38.8281C14.973 38.8281 10.2456 36.87 6.68994 33.3144C3.13432 29.7587 1.17619 25.0313 1.17619 20.003C1.17619 15.6672 2.67244 11.4715 5.39924 8.12249L7.4215 10.1448C2.76353 16.0723 2.89807 24.468 7.764 30.2758C8.03189 30.5956 8.2533 30.6737 8.38502 30.6787C8.61025 30.6873 8.82541 30.5479 8.92182 30.3282C9.65369 28.6613 10.1111 26.9913 10.5146 25.518C10.7396 24.6969 10.9303 24.0746 11.1183 23.5513C11.2992 23.5808 11.4808 23.5973 11.6619 23.5973C12.0321 23.5973 12.3995 23.5347 12.752 23.4133C12.6917 23.5199 12.6403 23.6333 12.6001 23.7535C12.3699 24.4426 12.1463 25.2594 11.9666 25.9159C11.7003 26.8882 11.3985 27.9901 11.003 29.1288C10.8968 29.4345 11.0585 29.7684 11.3643 29.8746C11.4279 29.8967 11.4928 29.9072 11.5566 29.9072C11.7991 29.9072 12.026 29.7554 12.11 29.5133C12.5184 28.3376 12.8257 27.2155 13.097 26.2253C13.2728 25.5828 13.4917 24.7833 13.7117 24.1248C13.8308 23.768 14.192 23.5544 14.57 23.6166L15.5609 23.7798C18.1207 24.2023 24.0528 25.1807 27.7536 19.6727C28.4679 19.8912 29.2971 20.079 30.2332 20.2614C31.6226 20.5321 33.1884 20.8377 34.7461 21.3633C34.432 24.8043 32.9317 28.0156 30.473 30.4744C27.8351 33.1123 24.331 34.6476 20.6063 34.7977C18.1126 34.898 15.6677 34.3735 13.4735 33.2947C14.6074 30.8562 15.2179 28.6217 15.6269 27.1241L15.6836 26.9166C15.7638 26.6234 16.1546 26.593 16.2725 26.5908C16.4121 26.588 16.5739 26.583 16.7535 26.5774C17.1199 26.566 17.582 26.5516 18.0791 26.5526C17.7846 26.8268 17.5339 27.1576 17.3469 27.5402C16.9501 28.352 16.8932 29.2698 17.1867 30.1244C17.4801 30.979 18.0888 31.6683 18.9006 32.0651C18.982 32.1048 19.0699 32.1246 19.1579 32.1246C19.2531 32.1246 19.3482 32.1014 19.4346 32.0552C19.6006 31.9663 19.7138 31.803 19.7388 31.6163L19.8654 30.6687L20.6292 31.042C20.9092 31.1789 21.225 31.1964 21.5185 31.0912C21.812 30.9861 22.0449 30.7719 22.1742 30.4883L22.6385 29.47C22.898 28.9011 22.6612 28.2403 22.0994 27.9658L21.3625 27.6056L22.0324 26.9236C22.1644 26.7892 22.2238 26.5996 22.192 26.414C22.1606 26.2308 22.0439 26.0739 21.8783 25.9903L21.8785 25.9899C21.8767 25.989 21.8749 25.9883 21.8733 25.9874C21.8728 25.9872 21.8723 25.9868 21.8717 25.9865C21.8695 25.9855 21.8672 25.9845 21.8649 25.9834C20.4731 25.289 18.123 25.3623 16.7168 25.4062C16.5424 25.4116 16.3851 25.4165 16.2496 25.4192C15.3993 25.4359 14.7493 25.8912 14.5534 26.6073L14.4964 26.8154C14.1017 28.2608 13.5142 30.4111 12.4408 32.7358C11.7559 32.3283 11.101 31.8633 10.4828 31.3433C10.2353 31.1351 9.86564 31.1669 9.65728 31.4145C9.44893 31.6621 9.4808 32.0318 9.72846 32.2401C12.6119 34.6658 16.2378 35.9818 20.002 35.9818C20.2187 35.9818 20.436 35.9774 20.6535 35.9687C24.6733 35.8067 28.4549 34.1498 31.3017 31.303C34.1484 28.4563 35.8053 24.6747 35.9674 20.6548C36.1284 16.6592 34.8042 12.7793 32.2388 9.72983C32.0305 9.48225 31.6608 9.4503 31.4132 9.65866C31.1656 9.86702 31.1337 10.2366 31.3421 10.4842C32.3173 11.6434 33.0985 12.9324 33.6709 14.3051C33.1122 14.1787 32.5918 14.0723 32.116 13.9788C32.0359 13.7346 31.928 13.4976 31.7913 13.2723C31.0774 12.0965 29.7561 11.5115 28.4721 11.6731C28.4548 10.0588 28.2092 8.63475 27.7285 7.36991C28.3492 7.751 28.9485 8.18132 29.52 8.66218C29.6299 8.7546 29.7638 8.79975 29.8969 8.79975C30.0638 8.79975 30.2297 8.72874 30.3456 8.591C30.5539 8.34335 30.5221 7.97374 30.2744 7.76546C24.4763 2.88772 16.0707 2.76499 10.1433 7.42304L8.12072 5.40038C11.4689 2.67429 15.6681 1.1778 20.0013 1.1778C25.0297 1.1778 29.7571 3.13593 33.3128 6.69155C36.8684 10.2472 38.8265 14.9745 38.8265 20.003C38.8265 25.0314 36.8684 29.7587 33.3128 33.3144ZM20.1889 27.807C20.251 28.1689 20.485 28.4812 20.8149 28.6423L21.5616 29.0073L21.1192 29.9773L20.3468 29.5998C20.0169 29.4387 19.6267 29.4458 19.3032 29.6192C18.9818 29.7913 18.7604 30.1087 18.7097 30.4695C18.5288 30.2593 18.3878 30.0144 18.2949 29.7441C18.1031 29.1855 18.1403 28.5857 18.3996 28.0551C18.799 27.238 19.6378 26.7768 20.4941 26.8176C20.2414 27.0791 20.1274 27.4483 20.1889 27.807Z" fill="white"/>
<path d="M30.4522 22.9889C30.0393 22.0445 29.2835 21.3174 28.3237 20.9416C28.1483 20.8729 27.9507 20.8927 27.7924 20.9949C27.6342 21.097 27.5347 21.2689 27.5249 21.457L27.465 22.6172C27.4647 22.6259 27.4632 22.6523 27.4337 22.6713C27.4043 22.6904 27.3797 22.6807 27.3715 22.6776L26.4052 22.2992C26.0908 22.176 25.7483 22.185 25.4407 22.3244C25.1332 22.4638 24.9007 22.7154 24.7861 23.033L24.3414 24.2647C24.1114 24.9017 24.4252 25.5941 25.0557 25.841L25.9894 26.2067C25.9975 26.2099 26.0222 26.2195 26.0308 26.2535C26.0396 26.2874 26.0226 26.3078 26.0171 26.3145L25.2731 27.2067C25.1525 27.3514 25.1087 27.5453 25.1556 27.7276C25.2025 27.91 25.3341 28.0589 25.5095 28.1275C25.9657 28.3062 26.442 28.3953 26.9176 28.3953C27.4425 28.3953 27.9668 28.2867 28.4622 28.0702C29.4066 27.6573 30.1338 26.9014 30.5096 25.9417C30.8854 24.982 30.865 23.9333 30.4522 22.9889ZM29.4184 25.5146C29.1567 26.1828 28.6504 26.7092 27.9928 26.9966C27.6071 27.1652 27.1963 27.2396 26.7881 27.2199L26.9171 27.0651C27.1718 26.7597 27.2647 26.3474 27.1659 25.9623C27.0671 25.5771 26.787 25.2606 26.4167 25.1156L25.483 24.7499C25.4482 24.7362 25.4309 24.6979 25.4436 24.6627L25.8884 23.431C25.8949 23.4129 25.9071 23.3997 25.9246 23.3918C25.942 23.3839 25.96 23.3834 25.9779 23.3904L26.9442 23.7688C27.3144 23.9138 27.735 23.8717 28.0691 23.6561C28.4032 23.4406 28.615 23.0748 28.6354 22.6777L28.6458 22.4765C28.9591 22.7392 29.2099 23.0729 29.3785 23.4585C29.666 24.1161 29.6801 24.8463 29.4184 25.5146Z" fill="white"/>
<path d="M25.5311 29.9339C25.2876 29.7208 24.9175 29.7455 24.7043 29.9891L24.1186 30.6585C23.9055 30.902 23.9302 31.2721 24.1738 31.4853C24.285 31.5825 24.4225 31.6303 24.5594 31.6303C24.7225 31.6303 24.8848 31.5625 25.0006 31.4302L25.5863 30.7608C25.7993 30.5172 25.7746 30.1471 25.5311 29.9339Z" fill="white"/>
<path d="M33.1063 23.1614L32.8971 22.5339C32.7947 22.2268 32.4629 22.061 32.1559 22.1633C31.8489 22.2656 31.6831 22.5974 31.7853 22.9044L31.9945 23.532C32.0763 23.7775 32.3049 23.9328 32.5502 23.9328C32.6116 23.9328 32.6741 23.923 32.7356 23.9025C33.0427 23.8002 33.2085 23.4684 33.1063 23.1614Z" fill="white"/>
<path d="M17.0001 32.323L16.7909 31.6956C16.6886 31.3886 16.3567 31.2227 16.0498 31.325C15.7427 31.4273 15.5769 31.7591 15.6791 32.0662L15.8883 32.6937C15.9701 32.9392 16.1987 33.0944 16.4441 33.0944C16.5055 33.0944 16.568 33.0847 16.6294 33.0642C16.9365 32.9619 17.1023 32.6301 17.0001 32.323Z" fill="white"/>
<path d="M24.3928 26.4201L24.2813 26.1412C24.161 25.8408 23.8202 25.6945 23.5196 25.8148C23.2191 25.9351 23.073 26.2761 23.1932 26.5765L23.3048 26.8554C23.3964 27.0844 23.6164 27.2238 23.849 27.2238C23.9214 27.2238 23.9951 27.2103 24.0665 27.1817C24.367 27.0615 24.5131 26.7204 24.3928 26.4201Z" fill="white"/>
<path d="M18.4939 12.9995H18.1592C17.8356 12.9995 17.5732 13.2618 17.5732 13.5854C17.5732 13.909 17.8356 14.1713 18.1592 14.1713H18.4939C18.8175 14.1713 19.0798 13.909 19.0798 13.5854C19.0798 13.2618 18.8175 12.9995 18.4939 12.9995Z" fill="white"/>
<path d="M23.458 12.9437C23.1344 12.9437 22.8721 13.2061 22.8721 13.5297V13.8086C22.8721 14.1322 23.1344 14.3945 23.458 14.3945C23.7816 14.3945 24.0439 14.1322 24.0439 13.8086V13.5297C24.0439 13.206 23.7816 12.9437 23.458 12.9437Z" fill="white"/>
</svg>
