<svg width="41" height="40" viewBox="0 0 41 40" fill="none" xmlns="http://www.w3.org/2000/svg">
<g clip-path="url(#clip0)">
<path d="M26.3 26.5613C25.6148 26.5613 24.926 26.397 24.2888 26.0643L20.9824 24.338C20.6313 24.1547 20.2124 24.1547 19.8614 24.338L16.5548 26.0643C15.0826 26.8329 13.3348 26.7026 11.9937 25.7241C10.6631 24.7533 10.0101 23.1446 10.2897 21.5257L10.9212 17.8692C10.9867 17.4902 10.8594 17.1028 10.5809 16.8332L7.90583 14.2437C6.71961 13.0955 6.2979 11.4085 6.80507 9.84077C7.31467 8.26557 8.65315 7.13959 10.2981 6.90225L13.9949 6.36875C14.3855 6.31234 14.7224 6.07039 14.8957 5.72134L16.549 2.39463C17.2829 0.917948 18.7669 0.000549316 20.4218 0.000549316C22.0766 0.000549316 23.5607 0.917948 24.2945 2.39463L25.9478 5.72126C26.1212 6.07032 26.458 6.31234 26.8486 6.36875L30.5454 6.90225C32.1904 7.13966 33.5288 8.26565 34.0384 9.84077C34.5456 11.4084 34.1239 13.0955 32.9377 14.2437L30.2627 16.8332C29.9841 17.1028 29.8568 17.4902 29.9223 17.8693L30.5538 21.5255C30.8334 23.1445 30.1805 24.7532 28.8498 25.724C28.0893 26.2792 27.1978 26.5613 26.3 26.5613ZM20.4218 21.0759C21.1111 21.0759 21.8002 21.2399 22.4287 21.5679L25.7351 23.2942C26.3368 23.6082 26.8258 23.3328 27.0082 23.1996C27.1854 23.0704 27.5857 22.7002 27.4747 22.0574L26.8432 18.4011C26.6017 17.0024 27.0676 15.5769 28.0895 14.5878L30.7645 11.9984C31.2372 11.5407 31.1324 11.0097 31.0655 10.8027C30.9973 10.5919 30.7667 10.0914 30.0993 9.99506L26.4025 9.46156C24.9959 9.25859 23.7799 8.38018 23.1496 7.11193L21.4963 3.7853C21.2003 3.18969 20.6464 3.12539 20.4219 3.12539C20.1975 3.12539 19.6436 3.18969 19.3476 3.7853L17.6943 7.11201C17.064 8.38018 15.848 9.25859 14.4413 9.46156L10.7445 9.99506C10.0772 10.0914 9.84656 10.5919 9.77836 10.8027C9.71141 11.0097 9.60664 11.5407 10.0794 11.9984L12.7544 14.5878C13.7762 15.5769 14.2422 17.0024 14.0007 18.4009L13.3691 22.0574C13.2581 22.7001 13.6584 23.0703 13.8357 23.1996C14.018 23.3326 14.5072 23.6082 15.1088 23.294L18.4152 21.5677C19.0433 21.2399 19.7326 21.0759 20.4218 21.0759ZM17.9483 3.09008H17.9491H17.9483ZM14.1976 39.9994C13.6576 39.9994 13.1148 39.8699 12.6126 39.6077L10.4012 38.4532C10.3163 38.409 10.2153 38.409 10.1305 38.4532L7.91903 39.6077C6.75867 40.2136 5.38105 40.1108 4.32404 39.3395C3.27399 38.5734 2.75885 37.3035 2.97955 36.0255L3.40188 33.5802C3.41649 33.4955 3.38743 33.4083 3.3243 33.3471L1.53528 31.6154C0.599059 30.7091 0.266177 29.3773 0.666635 28.1396C1.06866 26.8968 2.12418 26.0086 3.42125 25.8215L5.89361 25.4647C5.95564 25.4557 6.01369 25.4267 6.05689 25.383C6.66359 24.7694 7.65271 24.7636 8.26652 25.3702C8.88018 25.9768 8.88596 26.9661 8.27925 27.5798C7.76036 28.1047 7.07171 28.4519 6.34001 28.5576L3.86757 28.9143C3.82421 28.9206 3.69226 28.9397 3.63984 29.1015C3.59008 29.2553 3.67945 29.3417 3.70875 29.3701L5.49776 31.1019C6.30423 31.8826 6.67187 33.0078 6.48125 34.1119L6.05892 36.5574C6.05212 36.5968 6.03134 36.717 6.16595 36.8152C6.26282 36.8859 6.3661 36.8933 6.47289 36.8377L8.68432 35.6832C9.67461 35.1661 10.8571 35.1661 11.8474 35.6832L14.0588 36.8377C14.1655 36.8934 14.2688 36.8859 14.3657 36.8152C14.5003 36.717 14.4796 36.5969 14.4728 36.5574L14.0504 34.1121C13.8598 33.0078 14.2275 31.8826 15.0339 31.1019L16.8229 29.3702C17.4429 28.7701 18.4322 28.786 19.0323 29.4061C19.6325 30.0261 19.6164 31.0153 18.9963 31.6154L17.2073 33.3472C17.1441 33.4084 17.1151 33.4956 17.1297 33.5803L17.5521 36.0256C17.7728 37.3036 17.2576 38.5735 16.2076 39.3396C15.608 39.777 14.9052 39.9994 14.1976 39.9994ZM36.6757 39.3395C37.7258 38.5733 38.2409 37.3034 38.0202 36.0254L37.5979 33.5802C37.5833 33.4954 37.6123 33.4082 37.6755 33.347L39.4645 31.6153C40.4007 30.7091 40.7336 29.3772 40.3331 28.1395C39.9311 26.8967 38.8756 26.0085 37.5785 25.8214L35.1062 25.4646C35.0441 25.4556 34.9861 25.4266 34.9429 25.383C34.3363 24.7693 33.3469 24.7635 32.7332 25.3701C32.1196 25.9768 32.1138 26.966 32.7205 27.5798C33.2394 28.1046 33.9281 28.4519 34.6598 28.5575L37.1322 28.9143C37.1756 28.9205 37.3075 28.9396 37.3599 29.1014C37.4097 29.2552 37.3203 29.3416 37.291 29.37L35.502 31.1018C34.6955 31.8825 34.3279 33.0077 34.5185 34.1119L34.9408 36.5573C34.9476 36.5967 34.9684 36.7169 34.8338 36.8151C34.7369 36.8857 34.6336 36.8932 34.5269 36.8376L32.3154 35.683C31.3252 35.166 30.1426 35.166 29.1524 35.683L26.941 36.8375C26.8342 36.8932 26.731 36.8858 26.634 36.815C26.4994 36.7168 26.5202 36.5966 26.527 36.5572L26.9493 34.1118C27.1399 33.0076 26.7723 31.8824 25.9658 31.1017L24.1768 29.37C23.5568 28.7697 22.5676 28.7858 21.9675 29.4059C21.3673 30.0259 21.3834 31.0151 22.0034 31.6152L23.7925 33.347C23.8557 33.4081 23.8846 33.4953 23.87 33.58L23.4477 36.0253C23.227 37.3033 23.7421 38.5732 24.7922 39.3394C25.8492 40.1107 27.2268 40.2134 28.3872 39.6076L30.5986 38.453C30.6835 38.4089 30.7845 38.4089 30.8693 38.453L33.0807 39.6076C33.583 39.8698 34.1258 39.9992 34.6658 39.9992C35.3734 39.9994 36.0762 39.777 36.6757 39.3395Z" fill="white"/>
</g>
<defs>
<clipPath id="clip0">
<rect width="40" height="40" fill="white" transform="translate(0.5)"/>
</clipPath>
</defs>
</svg>
