<svg width="339" height="513" viewBox="0 0 339 513" fill="none" xmlns="http://www.w3.org/2000/svg">
<g clip-path="url(#clip0)">
<path d="M436.991 75.4425C388.647 27.0975 324.369 0.47246 255.999 0.47246C196.567 0.47246 138.988 21.1745 93.2651 58.8635L42.0181 7.61646C36.9011 2.49346 29.8191 -0.10654 22.5971 0.47746C15.3761 1.06246 8.78909 4.80546 4.52109 10.7455C-2.40191 20.3825 -0.970914 34.3025 7.85109 43.1235L58.4281 93.7005C20.7311 139.433 0.0380859 196.968 0.0380859 256.435C0.0380859 324.805 26.6631 389.083 75.0081 437.427C123.352 485.772 187.629 512.396 255.999 512.396C324.369 512.396 388.646 485.771 436.991 437.426C485.336 389.082 511.961 324.804 511.961 256.434C511.961 188.064 485.336 123.786 436.991 75.4425ZM18.4571 32.5165C14.8331 28.8915 14.0631 23.1735 16.7041 19.4965C18.4221 17.1055 20.9451 15.6605 23.8091 15.4285C26.6311 15.2005 29.4061 16.2155 31.4081 18.2205L131.3 118.112C149.216 136.028 172.79 147.491 199.89 151.613C179.221 162.686 162.236 179.657 151.173 200.297C147.047 173.209 135.586 149.645 117.676 131.736L18.4571 32.5165ZM346.462 167.872L355.795 175.788L346.494 181.435C343.082 183.506 340.711 186.788 339.815 190.676C338.919 194.564 339.616 198.553 341.777 201.907L349.536 213.95C353.871 220.678 362.625 222.696 369.468 218.541L378.442 213.093L381.158 225.025C381.693 227.376 383.326 229.326 385.546 230.266C386.484 230.663 387.479 230.86 388.471 230.86C389.825 230.86 391.174 230.493 392.364 229.771C393.888 228.846 395.334 227.828 396.714 226.743C408.801 229.191 430.281 233.952 444.599 237.615C445.278 244.46 445.578 251.37 445.51 258.316C426.025 252.08 406.916 248.349 389.835 245.022C364.371 240.06 339.869 233.914 333.066 222.647C327.085 212.734 326.954 198.69 328.682 179.245C330.056 163.779 331.095 140.489 324.276 116.896C318.959 98.4995 309.799 83.2515 296.936 71.2895C309.121 73.9855 321.09 77.9065 332.66 83.0365C344.256 102.414 349.748 125.87 349.42 154.6C348.748 154.961 348.081 155.34 347.421 155.741C345.36 156.992 344.026 159.158 343.837 161.561C343.647 163.965 344.624 166.313 346.462 167.872ZM365.949 164.731C376.808 163.219 388.046 168.119 394.086 178.069C400.127 188.019 399.289 200.252 392.937 209.187C391.867 204.656 388.678 200.876 384.388 199.059C382.56 198.285 380.616 197.902 378.677 197.902C376.026 197.902 373.383 198.618 371.063 200.026L361.969 205.547L354.578 194.076L363.984 188.365C368.001 185.926 370.621 181.673 370.991 176.989C371.356 172.343 369.474 167.771 365.949 164.731ZM407.787 213.724C409.618 210.402 411.031 206.823 411.956 203.04C412.605 200.385 412.992 197.707 413.138 195.036C420.441 196.511 428.462 198.235 437.067 200.359C439.218 207.313 440.967 214.397 442.306 221.578C431.33 218.889 418.182 215.934 407.787 213.724ZM151.995 287.3C148.461 287.65 144.858 287.328 141.345 286.314C134.082 284.218 128.07 279.419 124.416 272.801C120.762 266.183 119.904 258.538 122 251.275C123.014 247.761 124.661 244.54 126.84 241.737C127.718 246.316 130.751 250.233 134.969 252.228C139.217 254.238 144.209 254.082 148.324 251.81L157.637 246.668L164.55 258.434L154.917 263.752C150.803 266.023 148.011 270.165 147.448 274.831C146.889 279.464 148.588 284.118 151.995 287.3ZM113.295 178.647C117.938 176.3 122.767 174.249 127.67 172.496C130.243 178.259 132.346 184.338 133.961 190.693C129.871 192.17 125.858 193.888 121.987 195.845C92.4101 210.798 76.9771 236.228 66.5391 264.143C65.8531 247.394 67.3821 230.574 71.1341 214.148C71.1761 214.095 71.2231 214.048 71.2641 213.994C82.6651 198.743 96.4131 187.181 113.295 178.647ZM81.9261 181.203C88.0381 167.089 95.9541 153.558 105.673 140.946L107.069 142.342C112.147 147.42 116.616 153.048 120.486 159.135C115.729 160.923 111.051 162.973 106.527 165.26C97.5691 169.789 89.4061 175.084 81.9261 181.203ZM128.754 209.231C131.368 207.91 134.061 206.724 136.798 205.655C137.026 207.436 137.224 209.23 137.381 211.044C137.567 213.185 137.857 215.356 138.242 217.497C138.829 220.76 139.68 224.01 140.766 227.164C140.494 228.238 140.242 229.319 139.999 230.404L139.262 226.417C138.824 224.046 137.273 222.031 135.094 221C132.914 219.969 130.373 220.048 128.262 221.214C118.137 226.804 110.794 236.003 107.587 247.116C106.403 251.216 105.84 255.396 105.875 259.547C99.4271 271.945 94.9721 285.934 91.1441 299.29C90.0021 303.272 92.3051 307.425 96.2871 308.566C96.9771 308.764 97.6731 308.858 98.3571 308.858C101.618 308.858 104.619 306.714 105.563 303.423C107.526 296.574 109.769 289.181 112.422 281.992C116.34 288.307 121.728 293.41 128.117 296.953C125.597 303.991 123.06 312.266 120.102 323.064C116.013 337.995 111.48 354.545 105.13 371.137C88.4261 349.239 77.1221 324.58 71.2171 298.943C81.6361 261.694 93.9271 226.837 128.754 209.231ZM272.588 141.966L274.844 152.363L261.59 155.612L259.257 144.858C258.26 140.266 255.094 136.403 250.786 134.526C248.919 133.713 246.925 133.31 244.935 133.31C242.366 133.31 239.805 133.982 237.536 135.307C238.213 131.821 239.555 128.462 241.535 125.386C245.625 119.029 251.946 114.645 259.334 113.043C270.71 110.575 282.001 115.354 288.378 124.271C283.741 123.807 279.133 125.589 276.017 129.052C272.874 132.546 271.592 137.373 272.588 141.966ZM275.171 232.809L282.566 243.532C282.877 243.983 282.774 244.588 282.332 244.911L268.591 254.939C268.364 255.104 268.11 255.165 267.832 255.117C267.555 255.07 267.334 254.929 267.175 254.698L259.522 243.601C256.61 239.378 251.81 236.793 246.682 236.686C246.572 236.684 246.461 236.683 246.351 236.683C241.343 236.683 236.583 239.051 233.564 243.061L231.867 245.314C227.759 231.218 232.867 215.45 245.6 206.67C258.333 197.889 274.887 198.72 286.602 207.569L283.892 208.354C278.965 209.781 274.995 213.518 273.272 218.35C271.549 223.181 272.259 228.587 275.171 232.809ZM252.037 259.171C248.032 259.448 244.006 259.535 239.988 259.466L245.546 252.083C245.751 251.811 246.032 251.676 246.368 251.684C246.708 251.691 246.979 251.837 247.172 252.117L252.037 259.171ZM244.697 148.499L247.004 159.133C247.85 163.032 250.179 166.344 253.563 168.459C255.926 169.935 258.587 170.693 261.298 170.693C262.403 170.693 263.516 170.556 264.62 170.301C256.074 188.583 245.85 193.081 218.34 188.542C207.036 186.676 194.623 184.635 181.424 184.095C194.554 170.559 211.35 160.596 230.259 155.779C234.04 154.73 234.957 154.271 236.515 153.352L244.697 148.499ZM215.898 203.341C219.501 203.935 222.891 204.375 226.091 204.665C221.79 210.166 218.764 216.452 217.071 223.061C215.639 222.828 214.204 222.592 212.764 222.355C204.758 221.034 196.48 219.668 188.163 218.887C184.043 218.499 180.382 221.528 179.994 225.652C179.607 229.776 182.636 233.433 186.76 233.821C194.555 234.554 202.571 235.876 210.322 237.155C212.07 237.444 213.812 237.73 215.548 238.01C215.883 244.875 217.639 251.729 220.888 258.121C216.224 257.576 211.639 256.903 207.182 256.168C197.826 254.624 188.02 253.272 178.728 253.397C178.435 252.624 178.088 251.865 177.66 251.137L170.403 238.785C167.164 233.272 160.984 230.659 155.056 231.798C157.932 219.964 162.839 208.933 169.372 199.076C185.807 198.386 201.763 201.008 215.898 203.341ZM172.104 271.397C173.492 270.631 174.715 269.66 175.762 268.536C184.757 267.98 195.399 269.427 204.739 270.968C213.261 272.374 226.713 274.594 242.108 274.594C269.359 274.594 302.67 267.61 325.378 236.841C329.341 240.717 334.476 243.981 340.711 246.827C298.6 305.979 233.475 295.239 201.601 289.979L188.916 287.889C183.637 287.021 178.458 287.847 173.968 290.005C173.85 288.091 173.014 286.272 171.578 284.949L162.579 276.656L172.104 271.397ZM313.741 177.916C312.09 196.496 312.085 211.067 316.708 223.14C316.498 223.386 316.296 223.642 316.114 223.921C310.74 232.167 304.54 238.641 297.762 243.674C297.677 240.685 296.75 237.681 294.913 235.016L287.518 224.293C287.325 224.013 287.285 223.708 287.399 223.388C287.513 223.067 287.737 222.857 288.065 222.762L302.56 218.563C304.875 217.892 306.727 216.149 307.538 213.878C308.348 211.607 308.017 209.086 306.648 207.101C298.499 195.284 286.134 188.077 272.95 186.079C276.728 180.339 279.899 173.333 282.924 165.111C288.12 161.949 290.937 155.796 289.572 149.505L287.346 139.246L299.512 140.567C301.91 140.825 304.284 139.919 305.897 138.127C307.509 136.335 308.162 133.877 307.651 131.521C304.167 115.461 292.136 103.414 277.367 99.1135C268.707 91.0735 257.084 84.9825 241.842 80.5105C231.623 77.5115 224.232 73.6885 219.198 70.4055C233.847 67.5135 248.765 66.3685 263.627 66.9715C263.772 67.0515 263.915 67.1335 264.066 67.2045C302.513 85.1935 318.762 121.407 313.741 177.916ZM237.618 94.9035C242.588 96.3615 247.072 97.9935 251.104 99.8115C243.526 102.431 236.894 107.063 231.824 113.282C217.948 109.051 193.815 97.4805 178.296 83.4455C185.688 80.1185 193.246 77.2895 200.919 74.9615C205.364 79.3725 216.717 88.7705 237.618 94.9035ZM224.368 126.632C222.902 130.874 222.119 135.306 222.034 139.794C220.387 139.362 218.729 138.979 217.062 138.678C214.923 138.293 212.752 138.003 210.609 137.817C183.1 135.424 159.343 124.942 141.906 107.505L140.51 106.109C148.063 100.288 155.944 95.1115 164.085 90.5845C180.893 107.787 208.296 121.146 224.368 126.632ZM426.385 426.82C380.873 472.332 320.362 497.396 255.999 497.396C191.636 497.396 131.125 472.332 85.6131 426.82C40.1011 381.308 15.0371 320.797 15.0371 256.434C15.0371 200.936 34.1891 147.231 69.0921 104.364L94.9771 130.25C35.3551 206.122 37.0771 313.586 99.3611 387.927C102.79 392.02 105.624 393.02 107.31 393.084C110.193 393.193 112.947 391.409 114.181 388.597C123.549 367.261 129.404 345.885 134.569 327.026C137.448 316.517 139.89 308.551 142.296 301.853C144.611 302.231 146.936 302.442 149.254 302.442C153.993 302.442 158.695 301.64 163.207 300.086C162.436 301.451 161.777 302.902 161.263 304.441C158.317 313.261 155.455 323.717 153.154 332.12C149.745 344.565 145.882 358.67 140.82 373.245C139.461 377.158 141.531 381.432 145.445 382.791C146.259 383.074 147.09 383.208 147.906 383.208C151.01 383.208 153.914 381.265 154.99 378.167C160.217 363.117 164.151 348.754 167.623 336.08C169.874 327.856 172.676 317.622 175.491 309.193C177.016 304.627 181.639 301.893 186.478 302.689L199.161 304.778C231.927 310.185 307.858 322.709 355.228 252.207C364.371 255.003 374.985 257.407 386.967 259.742C404.751 263.207 424.793 267.119 444.732 273.846C440.711 317.891 421.507 358.996 390.036 390.468C356.271 424.233 311.419 443.886 263.742 445.807C231.823 447.091 200.528 440.377 172.443 426.568C186.956 395.356 194.771 366.754 200.006 347.584L200.732 344.929C201.759 341.176 206.761 340.787 208.27 340.758C210.056 340.723 212.128 340.658 214.426 340.587C219.117 340.441 225.031 340.257 231.394 340.27C227.624 343.779 224.416 348.014 222.022 352.911C216.943 363.302 216.215 375.05 219.971 385.989C223.727 396.928 231.519 405.75 241.91 410.829C242.951 411.337 244.077 411.591 245.203 411.591C246.421 411.591 247.639 411.294 248.744 410.703C250.869 409.565 252.318 407.474 252.638 405.085L254.259 392.956L264.035 397.734C267.62 399.486 271.662 399.71 275.419 398.364C279.175 397.018 282.156 394.277 283.811 390.646L289.755 377.612C293.076 370.33 290.045 361.872 282.854 358.358L273.422 353.748L281.997 345.018C283.686 343.298 284.446 340.871 284.039 338.495C283.637 336.151 282.144 334.142 280.024 333.072L280.026 333.067C280.004 333.056 279.981 333.046 279.96 333.035C279.953 333.032 279.947 333.027 279.94 333.024C279.911 333.01 279.882 332.998 279.853 332.984C262.037 324.095 231.956 325.033 213.957 325.595C211.725 325.665 209.711 325.728 207.976 325.762C197.093 325.976 188.773 331.803 186.265 340.969L185.536 343.633C180.484 362.134 172.963 389.658 159.224 419.414C150.457 414.198 142.074 408.247 134.162 401.591C130.993 398.925 126.262 399.333 123.595 402.502C120.928 405.671 121.336 410.403 124.506 413.069C161.414 444.118 207.825 460.963 256.007 460.963C258.781 460.963 261.562 460.907 264.346 460.795C315.8 458.722 364.205 437.513 400.643 401.075C437.081 364.637 458.29 316.232 460.364 264.778C462.425 213.634 445.475 163.971 412.638 124.938C409.972 121.769 405.24 121.36 402.071 124.027C398.901 126.694 398.493 131.425 401.16 134.594C413.643 149.432 423.642 165.931 430.969 183.501C423.818 181.883 417.157 180.522 411.067 179.325C410.041 176.199 408.66 173.165 406.91 170.282C397.772 155.231 380.86 147.743 364.424 149.812C364.203 129.149 361.06 110.921 354.907 94.7315C362.851 99.6095 370.522 105.117 377.838 111.272C379.244 112.455 380.958 113.033 382.662 113.033C384.799 113.033 386.922 112.124 388.405 110.361C391.072 107.191 390.664 102.46 387.494 99.7945C313.279 37.3595 205.687 35.7885 129.816 95.4115L103.927 69.5215C146.784 34.6275 200.533 15.4725 255.999 15.4725C320.362 15.4725 380.873 40.5365 426.385 86.0485C471.897 131.56 496.961 192.07 496.961 256.434C496.961 320.798 471.897 381.308 426.385 426.82ZM258.4 356.326C259.194 360.958 262.19 364.955 266.412 367.018L275.97 371.69L270.307 384.106L260.421 379.274C256.198 377.211 251.204 377.303 247.063 379.522C242.949 381.725 240.115 385.788 239.466 390.406C237.15 387.715 235.345 384.58 234.157 381.121C231.701 373.971 232.177 366.293 235.497 359.501C240.609 349.043 251.345 343.139 262.306 343.661C259.072 347.009 257.612 351.734 258.4 356.326Z" fill="#E0E0E0"/>
<path d="M389.786 294.654C384.501 282.566 374.826 273.259 362.541 268.448C360.296 267.569 357.766 267.823 355.74 269.13C353.715 270.437 352.441 272.638 352.316 275.046L351.55 289.896C351.545 290.007 351.527 290.345 351.149 290.589C350.772 290.833 350.457 290.709 350.353 290.669L337.984 285.825C333.96 284.249 329.576 284.364 325.639 286.148C321.703 287.932 318.727 291.153 317.26 295.218L311.567 310.984C308.623 319.137 312.64 328 320.711 331.161L332.662 335.841C332.766 335.882 333.081 336.005 333.192 336.44C333.304 336.875 333.087 337.135 333.016 337.221L323.493 348.642C321.949 350.494 321.389 352.975 321.989 355.309C322.589 357.644 324.274 359.549 326.519 360.428C332.359 362.715 338.455 363.856 344.543 363.856C351.262 363.856 357.972 362.466 364.314 359.694C376.402 354.409 385.71 344.734 390.52 332.449C395.331 320.165 395.07 306.742 389.786 294.654ZM376.553 326.982C373.203 335.535 366.723 342.273 358.305 345.952C353.368 348.11 348.11 349.063 342.885 348.81L344.536 346.829C347.796 342.92 348.986 337.643 347.721 332.713C346.456 327.783 342.871 323.732 338.131 321.875L326.18 317.195C325.735 317.019 325.513 316.529 325.676 316.078L331.369 300.312C331.452 300.081 331.608 299.912 331.832 299.811C332.055 299.71 332.286 299.703 332.515 299.793L344.883 304.637C349.622 306.493 355.005 305.954 359.282 303.194C363.559 300.435 366.269 295.753 366.531 290.67L366.664 288.095C370.674 291.458 373.884 295.729 376.042 300.665C379.722 309.082 379.903 318.428 376.553 326.982Z" fill="#E0E0E0"/>
<path d="M326.802 383.55C323.685 380.822 318.947 381.138 316.219 384.256L308.722 392.824C305.994 395.941 306.31 400.679 309.428 403.407C310.851 404.652 312.611 405.263 314.364 405.263C316.451 405.263 318.529 404.396 320.011 402.702L327.508 394.134C330.235 391.016 329.919 386.278 326.802 383.55Z" fill="#E0E0E0"/>
<path d="M217.598 414.132L214.921 406.101C213.611 402.171 209.363 400.048 205.434 401.357C201.504 402.667 199.381 406.914 200.69 410.844L203.367 418.876C204.415 422.019 207.341 424.006 210.481 424.006C211.267 424.006 212.067 423.881 212.854 423.619C216.784 422.309 218.907 418.062 217.598 414.132Z" fill="#E0E0E0"/>
<path d="M312.227 338.574L310.799 335.004C309.26 331.159 304.897 329.287 301.049 330.827C297.203 332.366 295.333 336.73 296.872 340.575L298.3 344.146C299.473 347.078 302.289 348.862 305.266 348.862C306.193 348.862 307.136 348.689 308.05 348.323C311.896 346.784 313.766 342.419 312.227 338.574Z" fill="#E0E0E0"/>
<path d="M236.722 166.79H232.438C228.296 166.79 224.938 170.148 224.938 174.29C224.938 178.432 228.296 181.79 232.438 181.79H236.722C240.864 181.79 244.222 178.432 244.222 174.29C244.222 170.148 240.864 166.79 236.722 166.79Z" fill="#E0E0E0"/>
<path d="M300.265 166.076C296.123 166.076 292.765 169.434 292.765 173.576V177.146C292.765 181.288 296.123 184.646 300.265 184.646C304.407 184.646 307.765 181.288 307.765 177.146V173.576C307.765 169.433 304.407 166.076 300.265 166.076Z" fill="#E0E0E0"/>
</g>
<defs>
<clipPath id="clip0">
<rect width="512" height="512" fill="white" transform="translate(0 0.396484)"/>
</clipPath>
</defs>
</svg>
