<svg width="356" height="513" viewBox="0 0 356 513" fill="none" xmlns="http://www.w3.org/2000/svg">
<g clip-path="url(#clip0)">
<path d="M279.993 75.048C231.648 26.702 167.37 0.0780146 99.0001 0.0780146C39.5691 0.0780146 -18.0109 20.78 -63.7339 58.469L-114.981 7.22101C-120.098 2.09801 -127.172 -0.505985 -134.403 0.0820147C-141.623 0.668015 -148.211 4.41001 -152.478 10.35C-159.401 19.987 -157.97 33.907 -149.148 42.728L-98.5709 93.305C-136.268 139.038 -156.961 196.574 -156.961 256.04C-156.961 324.41 -130.336 388.687 -81.9909 437.032C-33.6459 485.377 30.6311 512.002 99.0011 512.002C167.371 512.002 231.648 485.378 279.993 437.032C328.338 388.687 354.963 324.41 354.963 256.04C354.963 187.67 328.338 123.392 279.993 75.048ZM-138.542 32.122C-142.166 28.497 -142.936 22.778 -140.295 19.102C-138.577 16.711 -136.054 15.266 -133.19 15.034C-130.361 14.8 -127.592 15.821 -125.59 17.826L-25.6979 117.718C-7.78194 135.634 15.7911 147.097 42.8921 151.219C22.2231 162.292 5.23807 179.263 -5.82494 199.904C-9.95094 172.815 -21.4119 149.252 -39.3219 131.342L-138.542 32.122ZM-5.54094 252.013L-26.4059 269.208L-43.6009 248.343C-31.3409 242.028 -16.3689 243.471 -5.54094 252.013ZM269.386 426.426C223.874 471.937 163.364 497.002 99.0001 497.002C34.6361 497.002 -25.8739 471.938 -71.3859 426.426C-116.898 380.914 -141.962 320.403 -141.962 256.04C-141.962 200.543 -122.81 146.838 -87.9069 103.97L-62.0209 129.856C-121.643 205.728 -120.072 313.319 -57.6379 387.534C-56.1549 389.298 -54.0319 390.206 -51.8949 390.206C-50.1909 390.206 -48.4769 389.628 -47.0709 388.445C-43.9009 385.778 -43.4929 381.047 -46.1599 377.878C-103.621 309.575 -105.437 210.768 -51.3259 140.552L-49.9299 141.948C-32.4929 159.385 -22.0109 183.142 -19.6169 210.651C-19.4309 212.793 -19.1409 214.963 -18.7559 217.104C-18.1689 220.366 -17.3179 223.617 -16.2319 226.771C-16.5469 228.016 -16.8389 229.269 -17.1149 230.529C-31.5599 227.519 -47.1919 230.828 -59.4379 240.919C-60.9729 242.184 -61.9429 244.007 -62.1339 245.987C-62.3249 247.966 -61.7209 249.942 -60.4569 251.476L-33.2129 284.535C-31.7299 286.335 -29.5839 287.265 -27.4209 287.265C-25.7419 287.265 -24.0519 286.704 -22.6559 285.553L10.4031 258.309C13.6001 255.675 14.0561 250.948 11.4221 247.751C7.30006 242.75 2.40205 238.763 -2.94894 235.793C-2.87894 235.565 -2.81795 235.333 -2.76994 235.095C5.40205 195.159 36.3881 163.592 76.1701 154.674C80.2121 153.768 82.7541 149.757 81.8481 145.715C80.9421 141.673 76.9291 139.131 72.8891 140.037C71.8221 140.276 70.7671 140.544 69.7121 140.811C66.5581 139.727 63.3251 138.87 60.0631 138.283C57.9231 137.898 55.7511 137.608 53.6101 137.422C26.1011 135.028 2.34406 124.547 -15.0929 107.11L-16.4889 105.714C53.7271 51.603 152.534 53.419 220.837 110.88C222.243 112.063 223.957 112.641 225.661 112.641C227.798 112.641 229.921 111.732 231.404 109.969C234.071 106.8 233.663 102.068 230.493 99.402C156.278 36.967 48.6891 35.396 -27.1849 95.019L-53.0749 69.129C-10.2139 34.233 43.5351 15.078 99.0001 15.078C163.363 15.078 223.874 40.142 269.386 85.654C314.898 131.166 339.962 191.676 339.962 256.04C339.962 320.404 314.898 380.914 269.386 426.426Z" fill="#E0E0E0"/>
<path d="M255.638 124.546C252.972 121.376 248.24 120.968 245.071 123.635C241.901 126.302 241.493 131.033 244.16 134.202C274.583 170.366 290.286 216.384 288.377 263.782C286.456 311.459 266.803 356.311 233.038 390.076C199.273 423.841 154.421 443.494 106.744 445.415C59.3479 447.326 13.328 431.622 -22.836 401.199C-26.005 398.532 -30.736 398.941 -33.403 402.11C-36.07 405.279 -35.662 410.011 -32.492 412.677C4.41596 443.726 50.827 460.571 99.009 460.571C101.783 460.571 104.563 460.515 107.348 460.403C158.802 458.33 207.207 437.121 243.645 400.683C280.083 364.245 301.292 315.84 303.366 264.386C305.425 213.242 288.475 163.579 255.638 124.546Z" fill="#E0E0E0"/>
<path d="M239.286 257.182C238.347 254.723 236.187 252.936 233.596 252.474C214.535 249.075 192.822 251.486 172.459 259.26C152.095 267.035 134.302 279.709 122.357 294.947C120.733 297.019 120.314 299.79 121.253 302.249C122.192 304.708 124.352 306.495 126.943 306.957C132.585 307.963 138.455 308.46 144.457 308.46C158.735 308.46 173.743 305.645 188.08 300.171C208.444 292.395 226.237 279.721 238.182 264.484C239.806 262.412 240.225 259.641 239.286 257.182ZM182.729 286.158C170.087 290.985 156.935 293.469 144.505 293.469C144.421 293.469 144.337 293.469 144.252 293.469C153.552 285.11 165.082 278.134 177.81 273.275C190.452 268.448 203.603 265.964 216.034 265.964C216.119 265.964 216.203 265.964 216.287 265.964C206.987 274.323 195.457 281.299 182.729 286.158Z" fill="#E0E0E0"/>
<path d="M161.965 217.173C153.643 210.51 143.225 207.489 132.628 208.661C127.404 209.24 122.448 210.808 117.964 213.243C120.321 210.406 122.581 207.458 124.711 204.393C137.15 186.494 144.705 165.996 145.983 146.676C146.157 144.049 144.941 141.524 142.779 140.022C140.617 138.52 137.825 138.261 135.425 139.339C117.764 147.275 101.188 161.503 88.7479 179.403C76.3099 197.303 68.7549 217.8 67.4769 237.119C67.3029 239.746 68.5189 242.272 70.6809 243.774C71.9579 244.662 73.4549 245.115 74.9609 245.115C76.0039 245.115 77.0519 244.898 78.0339 244.456C87.2139 240.331 96.0929 234.495 104.258 227.338C104.207 227.854 104.206 228.377 104.264 228.9C104.483 230.877 105.479 232.686 107.032 233.929L132.334 254.184C133.717 255.291 135.372 255.83 137.016 255.83C139.215 255.83 141.394 254.867 142.876 253.017L163.132 227.715C165.72 224.482 165.198 219.762 161.965 217.173ZM84.7299 223.558C87.6999 211.411 93.2929 199.151 101.067 187.963C108.842 176.775 118.382 167.258 128.731 160.238C125.76 172.385 120.168 184.645 112.393 195.833C104.619 207.021 95.0789 216.538 84.7299 223.558ZM135.853 237.787L123.161 227.626C129.889 223.13 138.468 222.18 146.014 225.096L135.853 237.787Z" fill="#E0E0E0"/>
<path d="M94.1789 253.887C91.1819 251.028 86.4339 251.139 83.5749 254.138L54.0079 285.137C51.1499 288.133 51.2619 292.881 54.2599 295.739L85.2589 325.306C86.7109 326.691 88.5739 327.379 90.4339 327.379C92.4129 327.379 94.3889 326.601 95.8619 325.056C105.142 315.326 110.078 302.565 109.76 289.123C109.443 275.681 103.909 263.167 94.1789 253.887ZM89.6099 308.728L70.0389 290.061L88.7059 270.491C92.4889 276.053 94.6019 282.592 94.7639 289.477C94.9269 296.362 93.1259 302.993 89.6099 308.728Z" fill="#E0E0E0"/>
<path d="M234.583 170.888C233.821 169.051 232.361 167.591 230.523 166.83C204.878 156.212 175.375 168.439 164.757 194.085C163.996 195.923 163.997 197.988 164.758 199.826C165.52 201.663 166.98 203.123 168.818 203.884L208.399 220.27C209.337 220.658 210.309 220.842 211.265 220.842C214.208 220.842 217.002 219.098 218.198 216.209L234.584 176.628C235.345 174.79 235.344 172.726 234.583 170.888ZM207.207 203.541L182.226 193.199C190.082 181.865 203.974 176.107 217.549 178.56L207.207 203.541Z" fill="#E0E0E0"/>
<path d="M183.254 355.363C175.799 345.405 164.912 338.945 152.598 337.174C150.629 336.893 148.628 337.402 147.036 338.594C145.444 339.786 144.39 341.562 144.107 343.531L138.546 382.206C137.957 386.306 140.802 390.107 144.902 390.697L183.577 396.258C183.933 396.308 184.29 396.334 184.645 396.334C186.256 396.334 187.835 395.815 189.14 394.838C190.732 393.646 191.786 391.87 192.069 389.901C193.84 377.588 190.709 365.321 183.254 355.363ZM154.461 376.916L157.76 353.971C163.077 356.099 167.726 359.651 171.245 364.352C174.764 369.053 176.862 374.514 177.406 380.216L154.461 376.916Z" fill="#E0E0E0"/>
<path d="M125.54 416.177L122.053 383.954C121.606 379.836 117.907 376.858 113.789 377.304C103.19 378.451 93.6721 383.657 86.9891 391.962C80.3061 400.267 77.2571 410.678 78.4041 421.277C78.8201 425.121 82.0711 427.971 85.8511 427.971C86.1211 427.971 86.3931 427.957 86.6671 427.927L118.89 424.44C120.868 424.226 122.68 423.235 123.927 421.686C125.174 420.136 125.754 418.154 125.54 416.177ZM93.6461 412.084C94.4191 408.202 96.1231 404.538 98.6751 401.366C101.227 398.194 104.443 395.746 108.069 394.16L109.819 410.334L93.6461 412.084Z" fill="#E0E0E0"/>
<path d="M95.7101 364.876C87.6861 347.255 73.3751 330.75 55.4131 318.401C37.4511 306.052 16.9151 298.6 -2.4099 297.419C-5.0469 297.247 -7.5569 298.487 -9.0479 300.656C-10.5399 302.825 -10.7839 305.617 -9.6939 308.013C-5.0039 318.313 1.84711 328.223 10.3071 337.153C-0.0238914 338.172 -9.95389 343.176 -16.9389 351.902C-19.5269 355.135 -19.0049 359.855 -15.7709 362.444L9.53111 382.7C10.8671 383.77 12.5221 384.345 14.2181 384.345C14.4931 384.345 14.7691 384.33 15.0441 384.3C17.0211 384.081 18.8301 383.085 20.0731 381.532L37.9651 359.182C54.0561 368.715 71.6931 374.447 88.4261 375.47C88.5801 375.48 88.7331 375.484 88.8851 375.484C91.3441 375.484 93.6601 374.276 95.0641 372.233C96.5561 370.064 96.8001 367.272 95.7101 364.876ZM13.0511 366.302L0.351099 356.135C3.6371 353.929 7.4291 352.532 11.4761 352.084C15.5231 351.637 19.5281 352.168 23.2181 353.602L13.0511 366.302ZM39.1011 342.127C27.8741 334.408 18.3091 324.916 11.2381 314.602C23.4011 317.511 35.6891 323.043 46.9151 330.761C58.1421 338.479 67.7071 347.972 74.7781 358.286C62.6161 355.376 50.3281 349.845 39.1011 342.127Z" fill="#E0E0E0"/>
<path d="M249.975 310.921C249.824 308.937 248.891 307.094 247.383 305.799C245.874 304.503 243.905 303.859 241.929 304.009L202.968 306.963C200.985 307.113 199.142 308.046 197.846 309.554C196.55 311.063 195.906 313.025 196.056 315.008L199.01 353.969C199.308 357.907 202.596 360.903 206.481 360.903C206.671 360.903 206.863 360.896 207.056 360.881C232.663 358.94 251.916 336.527 249.975 310.921ZM213.331 344.46L211.579 321.354L234.686 319.602C232.769 331.176 224.485 340.82 213.331 344.46Z" fill="#E0E0E0"/>
<path d="M133.926 106.219C121.12 88.234 96.069 84.02 78.084 96.825C76.464 97.979 75.368 99.729 75.038 101.691C74.708 103.653 75.171 105.665 76.325 107.285L95.2 133.793C96.662 135.848 98.971 136.943 101.315 136.943C102.82 136.943 104.339 136.491 105.659 135.552L132.167 116.678C133.787 115.525 134.883 113.774 135.213 111.813C135.543 109.852 135.08 107.839 133.926 106.219ZM103.068 118.983L93.559 105.628C101.322 103.108 109.911 104.553 116.423 109.474L103.068 118.983Z" fill="#E0E0E0"/>
<path d="M48.8451 192.88C45.0121 191.302 40.6311 193.13 39.0541 196.959L35.3051 206.062C33.7271 209.892 35.5541 214.276 39.3841 215.853C40.3191 216.238 41.2861 216.42 42.2371 216.42C45.1861 216.42 47.9831 214.67 49.1751 211.774L52.9241 202.671C54.5011 198.841 52.6751 194.457 48.8451 192.88Z" fill="#E0E0E0"/>
<path d="M181.071 123.507L171.968 115.475C168.861 112.733 164.121 113.031 161.382 116.136C158.642 119.243 158.938 123.983 162.044 126.723L171.147 134.755C172.573 136.014 174.343 136.631 176.106 136.631C178.183 136.631 180.251 135.773 181.732 134.093C184.473 130.987 184.176 126.247 181.071 123.507Z" fill="#E0E0E0"/>
<path d="M256.997 214.219C253.419 212.134 248.828 213.34 246.74 216.919L239.243 229.771C237.156 233.348 238.365 237.941 241.943 240.028C243.131 240.721 244.431 241.05 245.715 241.05C248.295 241.05 250.806 239.717 252.2 237.328L259.697 224.476C261.784 220.898 260.575 216.306 256.997 214.219Z" fill="#E0E0E0"/>
<path d="M50.4551 250.447C47.6621 247.387 42.9181 247.172 39.8591 249.966L27.5431 261.211C24.4841 264.004 24.2691 268.748 27.0621 271.807C28.5421 273.427 30.5691 274.249 32.6031 274.249C34.4091 274.249 36.2201 273.601 37.6581 272.288L49.9741 261.043C53.0331 258.25 53.2481 253.506 50.4551 250.447Z" fill="#E0E0E0"/>
<path d="M59.8581 388.89C56.9301 385.961 52.181 385.961 49.252 388.89L38.0071 400.135C35.0781 403.064 35.0781 407.813 38.0071 410.741C39.4711 412.205 41.391 412.938 43.31 412.938C45.229 412.938 47.1491 412.206 48.6131 410.741L59.8581 399.496C62.7871 396.567 62.7871 391.818 59.8581 388.89Z" fill="#E0E0E0"/>
<path d="M128.158 344.98L123.339 328.38C122.184 324.402 118.022 322.113 114.045 323.269C110.067 324.424 107.779 328.585 108.934 332.563L113.753 349.163C114.705 352.442 117.701 354.574 120.952 354.574C121.644 354.574 122.348 354.477 123.047 354.275C127.024 353.119 129.312 348.958 128.158 344.98Z" fill="#E0E0E0"/>
<path d="M184.113 322.831C183.738 318.706 180.088 315.659 175.965 316.041L170.075 316.577C165.95 316.952 162.91 320.6 163.285 324.725C163.639 328.619 166.91 331.546 170.745 331.546C170.973 331.546 171.202 331.536 171.433 331.515L177.323 330.979C181.448 330.604 184.488 326.956 184.113 322.831Z" fill="#E0E0E0"/>
<path d="M55.853 108.634L35.148 98.638C31.416 96.835 26.934 98.401 25.133 102.131C23.332 105.861 24.896 110.345 28.626 112.146L49.331 122.142C50.382 122.65 51.493 122.89 52.586 122.89C55.374 122.89 58.052 121.328 59.345 118.649C61.147 114.918 59.583 110.434 55.853 108.634Z" fill="#E0E0E0"/>
<path d="M267.737 286.112L264.881 270.405C264.14 266.33 260.237 263.628 256.16 264.368C252.085 265.109 249.382 269.014 250.123 273.089L252.979 288.796C253.638 292.418 256.794 294.956 260.349 294.956C260.794 294.956 261.246 294.916 261.7 294.833C265.775 294.092 268.478 290.187 267.737 286.112Z" fill="#E0E0E0"/>
<path d="M187.035 228.606L181.323 227.892C177.212 227.38 173.465 230.293 172.951 234.404C172.437 238.515 175.353 242.262 179.463 242.776L185.175 243.49C185.491 243.53 185.804 243.549 186.114 243.549C189.842 243.549 193.072 240.773 193.547 236.978C194.061 232.868 191.145 229.12 187.035 228.606Z" fill="#E0E0E0"/>
<path d="M170.896 149.376C167.191 147.525 162.687 149.025 160.834 152.73L158.692 157.014C156.839 160.718 158.341 165.223 162.046 167.076C163.123 167.614 164.267 167.869 165.394 167.869C168.145 167.869 170.794 166.349 172.108 163.722L174.25 159.438C176.102 155.733 174.6 151.228 170.896 149.376Z" fill="#E0E0E0"/>
<path d="M152.548 406.327H147.55C143.408 406.327 140.05 409.685 140.05 413.827C140.05 417.969 143.408 421.327 147.55 421.327H152.548C156.69 421.327 160.048 417.969 160.048 413.827C160.048 409.685 156.69 406.327 152.548 406.327Z" fill="#E0E0E0"/>
<path d="M215.779 136.559L212.209 128.705C210.495 124.934 206.047 123.267 202.278 124.981C198.507 126.695 196.84 131.141 198.554 134.912L202.124 142.766C203.38 145.531 206.105 147.164 208.956 147.164C209.994 147.164 211.049 146.947 212.055 146.49C215.826 144.776 217.493 140.33 215.779 136.559Z" fill="#E0E0E0"/>
</g>
<defs>
<clipPath id="clip0">
<rect width="512.002" height="512.002" fill="white" transform="translate(-157)"/>
</clipPath>
</defs>
</svg>
