<svg width="97" height="49" viewBox="0 0 97 49" fill="none" xmlns="http://www.w3.org/2000/svg">
<path fill-rule="evenodd" clip-rule="evenodd" d="M0.5 5C2.98528 5 5 2.98528 5 0.5C5 0.330995 4.99068 0.164167 4.97254 0H12.0275C12.0093 0.164167 12 0.330995 12 0.5C12 2.98528 14.0147 5 16.5 5C18.9853 5 21 2.98528 21 0.5C21 0.330995 20.9907 0.164167 20.9725 0H28.0275C28.0093 0.164167 28 0.330995 28 0.5C28 2.98528 30.0147 5 32.5 5C34.9853 5 37 2.98528 37 0.5C37 0.330995 36.9907 0.164167 36.9725 0H44.0275C44.0093 0.164167 44 0.330995 44 0.5C44 2.98528 46.0147 5 48.5 5C50.9853 5 53 2.98528 53 0.5C53 0.330995 52.9907 0.164167 52.9725 0H60.0275C60.0093 0.164167 60 0.330995 60 0.5C60 2.98528 62.0147 5 64.5 5C66.9853 5 69 2.98528 69 0.5C69 0.330995 68.9907 0.164167 68.9725 0H76.0275C76.0093 0.164167 76 0.330995 76 0.5C76 2.98528 78.0147 5 80.5 5C82.9853 5 85 2.98528 85 0.5C85 0.330995 84.9907 0.164167 84.9725 0H92.0275C92.0093 0.164167 92 0.330995 92 0.5C92 2.98528 94.0147 5 96.5 5C96.669 5 96.8358 4.99068 97 4.97254V12.0275C96.8358 12.0093 96.669 12 96.5 12C94.0147 12 92 14.0147 92 16.5C92 18.9853 94.0147 21 96.5 21C96.669 21 96.8358 20.9907 97 20.9725V28.0275C96.8358 28.0093 96.669 28 96.5 28C94.0147 28 92 30.0147 92 32.5C92 34.9853 94.0147 37 96.5 37C96.669 37 96.8358 36.9907 97 36.9725V44.0275C96.8358 44.0093 96.669 44 96.5 44C94.0147 44 92 46.0147 92 48.5C92 48.669 92.0093 48.8358 92.0275 49H84.9725C84.9907 48.8358 85 48.669 85 48.5C85 46.0147 82.9853 44 80.5 44C78.0147 44 76 46.0147 76 48.5C76 48.669 76.0093 48.8358 76.0275 49H68.9725C68.9907 48.8358 69 48.669 69 48.5C69 46.0147 66.9853 44 64.5 44C62.0147 44 60 46.0147 60 48.5C60 48.669 60.0093 48.8358 60.0275 49H52.9725C52.9907 48.8358 53 48.669 53 48.5C53 46.0147 50.9853 44 48.5 44C46.0147 44 44 46.0147 44 48.5C44 48.669 44.0093 48.8358 44.0275 49H36.9725C36.9907 48.8358 37 48.669 37 48.5C37 46.0147 34.9853 44 32.5 44C30.0147 44 28 46.0147 28 48.5C28 48.669 28.0093 48.8358 28.0275 49H20.9725C20.9907 48.8358 21 48.669 21 48.5C21 46.0147 18.9853 44 16.5 44C14.0147 44 12 46.0147 12 48.5C12 48.669 12.0093 48.8358 12.0275 49H4.97254C4.99068 48.8358 5 48.669 5 48.5C5 46.0147 2.98528 44 0.5 44C0.330995 44 0.164167 44.0093 0 44.0275V36.9725C0.164167 36.9907 0.330995 37 0.5 37C2.98528 37 5 34.9853 5 32.5C5 30.0147 2.98528 28 0.5 28C0.330995 28 0.164167 28.0093 0 28.0275V20.9725C0.164167 20.9907 0.330995 21 0.5 21C2.98528 21 5 18.9853 5 16.5C5 14.0147 2.98528 12 0.5 12C0.330995 12 0.164167 12.0093 0 12.0275V4.97254C0.164167 4.99068 0.330995 5 0.5 5Z" fill="white"/>
</svg>
