<svg width="86" height="59" viewBox="0 0 86 59" fill="none" xmlns="http://www.w3.org/2000/svg">
<g clip-path="url(#clip0)">
<g style="mix-blend-mode:multiply">
<path d="M56.0316 20.417C54.6986 20.5379 53.7311 22.0804 53.8816 23.8504C54.0321 25.6204 55.272 26.9639 56.6121 26.8359C57.9523 26.708 58.9055 25.1726 58.7621 23.4026C58.6188 21.6326 57.3718 20.2962 56.0316 20.417Z" fill="white"/>
</g>
<g style="mix-blend-mode:multiply">
<path d="M14.0207 26.5658C13.2666 26.3388 12.4783 26.245 11.6915 26.2886C11.3764 26.321 11.0866 26.4746 10.8843 26.7164C10.682 26.9583 10.5833 27.2691 10.6093 27.5823L10.8028 29.7148C10.8422 30.017 10.9959 30.293 11.2328 30.487C11.4696 30.681 11.7719 30.7785 12.0785 30.7598C12.8598 30.6535 13.6165 30.4129 14.3145 30.0489C14.6482 29.8726 14.922 29.6026 15.1016 29.2726C15.2812 28.9427 15.3586 28.5675 15.3242 28.194C15.2898 27.8206 15.145 27.4656 14.908 27.1734C14.671 26.8812 14.3524 26.6649 13.992 26.5516L14.0207 26.5658Z" fill="white"/>
</g>
<g style="mix-blend-mode:multiply">
<path d="M73.4754 19.1659C72.902 18.8461 72.4147 18.4551 72.4004 18.3129C72.386 18.1708 72.0277 18.4338 71.5977 18.9314C70.797 19.8902 70.3631 21.0984 70.3722 22.3434C70.5585 24.2769 71.612 25.791 73.0812 25.663C74.5504 25.5351 75.3172 23.8433 75.1452 21.9382C75.1074 21.3782 74.9363 20.835 74.6461 20.3531C74.3558 19.8712 73.9546 19.4644 73.4754 19.1659Z" fill="white"/>
</g>
<g style="mix-blend-mode:multiply">
<path d="M13.9131 22.9334C13.8923 22.6391 13.7895 22.3563 13.6161 22.1166C13.4427 21.8768 13.2056 21.6896 12.9312 21.5757C12.278 21.3587 11.5918 21.2553 10.9031 21.2701C10.6329 21.3407 10.4001 21.5111 10.2523 21.7462C10.1044 21.9814 10.0527 22.2636 10.1076 22.5354L10.2437 23.9926C10.3082 24.6466 10.7597 25.1371 11.2542 25.0944C11.9376 24.9872 12.5971 24.7635 13.2036 24.4333C13.4522 24.2749 13.6507 24.0501 13.7762 23.7848C13.9017 23.5194 13.9491 23.2243 13.9131 22.9334Z" fill="white"/>
</g>
<g style="mix-blend-mode:multiply">
<path d="M46.1201 21.3269C44.78 21.4478 43.8196 22.9903 43.9701 24.7603C44.1206 26.5303 45.3604 27.8667 46.7006 27.7459C48.0408 27.625 49.0011 26.0825 48.8506 24.3125C48.7001 22.5425 47.4531 21.2274 46.1201 21.3269Z" fill="white"/>
</g>
<g style="mix-blend-mode:multiply">
<path d="M83.7452 41.2376C83.6653 40.9454 83.5135 40.6774 83.3033 40.4578C83.0932 40.2381 82.8313 40.0738 82.5412 39.9794C82.5412 39.9794 80.2765 39.1549 80.1045 37.3493C79.9325 35.5438 82.0108 34.3211 82.0108 34.3211C82.3069 34.1263 82.5474 33.8591 82.7094 33.5454C82.8713 33.2317 82.9491 32.882 82.9353 32.5298L82.8422 31.5488C82.7912 31.199 82.6494 30.8683 82.4308 30.5892C82.2122 30.3101 81.9243 30.0921 81.5952 29.9565C81.5952 29.9565 79.3305 29.132 79.1585 27.3264C78.9865 25.5209 81.0648 24.2982 81.0648 24.2982C81.3609 24.1034 81.6014 23.8363 81.7634 23.5225C81.9253 23.2088 82.0031 22.8591 81.9893 22.5069L81.7815 20.2678C81.7286 19.9206 81.5877 19.5924 81.3721 19.314C81.1566 19.0355 80.8733 18.8158 80.5488 18.6755C80.5488 18.6755 78.277 17.8509 78.1122 16.0453C77.9473 14.2398 80.0185 13.0172 80.0185 13.0172C80.3135 12.8229 80.5534 12.5569 80.7152 12.2446C80.8771 11.9322 80.9555 11.5839 80.943 11.2329L80.8068 9.81125C80.7559 9.46341 80.6158 9.13437 80.3999 8.85558C80.1841 8.5768 79.8998 8.3576 79.5742 8.21896C79.5742 8.21896 77.3095 7.39438 77.1375 5.58884C76.9655 3.78329 79.051 2.56064 79.051 2.56064C79.3351 2.38898 79.5699 2.14784 79.733 1.86031C79.8962 1.57279 79.9821 1.24852 79.9827 0.918596C79.9301 0.636881 79.7709 0.385756 79.5378 0.216614C79.3046 0.0474708 79.0151 -0.0269016 78.7285 0.00871624L75.74 0.285945C75.0807 0.342813 74.5647 0.513415 74.5933 0.648475V0.783535C74.676 1.66961 74.4004 2.55198 73.8272 3.23652C73.5434 3.57547 73.195 3.85565 72.802 4.06107C72.409 4.26648 71.9791 4.39311 71.5367 4.43372C70.6434 4.51573 69.7538 4.24238 69.0637 3.67382C68.3735 3.10526 67.9393 2.28805 67.8567 1.40197V1.26691C67.8567 1.12474 67.3192 1.05366 66.6598 1.11763L65.2265 1.24558C64.5672 1.30956 64.0512 1.47305 64.0798 1.61522V1.75028C64.1616 2.6373 63.8847 3.5202 63.3101 4.20474C62.7356 4.88928 61.9104 5.3194 61.0161 5.40046C60.1218 5.48153 59.2317 5.20691 58.5415 4.63701C57.8514 4.06712 57.4177 3.24863 57.336 2.36161V2.22655C57.336 2.08438 56.7985 2.0204 56.1392 2.07727L53.8458 2.29052C53.1865 2.34739 52.6705 2.51088 52.6992 2.65305V2.78811C52.7818 3.67419 52.5063 4.55656 51.933 5.2411C51.6492 5.58005 51.3008 5.86023 50.9078 6.06565C50.5149 6.27106 50.0849 6.39769 49.6426 6.43829C48.7492 6.5203 47.8596 6.24696 47.1695 5.6784C46.4793 5.10984 46.0452 4.29263 45.9625 3.40655V3.27149C45.9625 3.12932 45.425 3.05823 44.7728 3.1151L43.7408 3.21462C43.0815 3.27149 42.5655 3.43498 42.5942 3.57715V3.71221C42.6351 4.15095 42.5885 4.5934 42.4571 5.01428C42.3256 5.43516 42.1119 5.82625 41.828 6.1652C41.5442 6.50415 41.1959 6.78433 40.8029 6.98974C40.4099 7.19516 39.9799 7.32178 39.5376 7.36239C39.0952 7.403 38.6492 7.35679 38.2248 7.22641C37.8005 7.09602 37.4062 6.88402 37.0645 6.60249C36.3743 6.03393 35.9402 5.21672 35.8575 4.33064V4.19558C35.8575 4.05341 35.32 3.98233 34.6607 4.04631L34.0515 4.09607C33.3993 4.16004 32.8833 4.32354 32.9048 4.4657V4.60076C32.9512 5.04252 32.9087 5.48902 32.7798 5.91436C32.6508 6.3397 32.4381 6.73541 32.1538 7.07855C31.8694 7.42169 31.5193 7.70543 31.1236 7.91331C30.7279 8.12119 30.2945 8.24907 29.8485 8.28953C29.4026 8.33 28.953 8.28224 28.5259 8.14904C28.0987 8.01584 27.7024 7.79983 27.3601 7.51356C27.0177 7.22729 26.7361 6.87644 26.5315 6.48137C26.3269 6.0863 26.2034 5.65486 26.1682 5.21209V5.08414C26.1682 4.93486 25.6307 4.87088 24.9785 4.92775L23.1008 5.09835C22.4487 5.16233 21.9327 5.32582 21.9613 5.46799V5.58884C22.0023 6.02758 21.9557 6.47002 21.8242 6.89091C21.6928 7.31179 21.479 7.70287 21.1952 8.04182C20.622 8.72636 19.7981 9.15701 18.9047 9.23902C18.0114 9.32103 17.1218 9.04768 16.4317 8.47912C15.7415 7.91056 15.3073 7.09335 15.2247 6.20727V6.07221C15.2247 5.93004 14.6943 5.86607 14.035 5.92293L12.6017 6.05799C11.9495 6.11486 11.4335 6.27836 11.4622 6.42052V6.55558C11.5031 6.99433 11.4565 7.43677 11.3251 7.85765C11.1936 8.27854 10.9799 8.66962 10.696 9.00857C10.1228 9.69311 9.29892 10.1238 8.40558 10.2058C7.51224 10.2878 6.62265 10.0144 5.9325 9.44587C5.24235 8.87731 4.80818 8.0601 4.72549 7.17402V7.03896C4.72549 6.89679 4.19516 6.8257 3.53583 6.88968L1.14933 7.10293C0.990216 7.10736 0.833643 7.14361 0.688993 7.2095C0.544343 7.27539 0.414594 7.36957 0.307521 7.48639C0.200448 7.60321 0.118257 7.74028 0.0658719 7.88936C0.0134871 8.03845 -0.00801233 8.19649 0.00266197 8.35402C0.0600696 8.70826 0.188607 9.04745 0.380653 9.3515C0.572699 9.65554 0.824343 9.91824 1.12066 10.124C1.5178 10.3829 1.85657 10.7205 2.1156 11.1157C2.37463 11.5109 2.5483 11.955 2.62566 12.42C2.63501 12.8921 2.54631 13.361 2.36506 13.7976C2.18382 14.2342 1.91392 14.6291 1.57216 14.9578C1.31394 15.2231 1.11232 15.5374 0.97933 15.8819C0.846343 16.2263 0.784726 16.5938 0.798162 16.9623L0.962995 18.7608C1.02037 19.1227 1.14932 19.4698 1.34242 19.7821C1.53551 20.0944 1.78896 20.3657 2.08816 20.5805C2.4853 20.8394 2.82407 21.177 3.0831 21.5722C3.34213 21.9674 3.5158 22.4115 3.59316 22.8765C3.60425 23.3488 3.51633 23.8183 3.33499 24.2551C3.15364 24.6919 2.88282 25.0866 2.53966 25.4143C2.28416 25.6783 2.08465 25.9905 1.95294 26.3324C1.82122 26.6743 1.75998 27.0389 1.77283 27.4046L2.04516 30.0205C2.09863 30.3836 2.22594 30.7322 2.41936 31.045C2.61278 31.3578 2.86827 31.6284 3.17033 31.8403C3.56695 32.1006 3.90483 32.4397 4.16263 32.8361C4.42044 33.2325 4.59258 33.6777 4.66816 34.1434C4.67925 34.6157 4.59133 35.0851 4.40999 35.522C4.22864 35.9588 3.95781 36.3535 3.61466 36.6811C3.35949 36.9454 3.1602 37.2576 3.02851 37.5995C2.89681 37.9413 2.83538 38.3058 2.84783 38.6715L2.97683 40.0505C3.03046 40.4064 3.15505 40.7481 3.34332 41.0556C3.53159 41.3632 3.77975 41.6305 4.07333 41.8419C4.46995 42.1022 4.80783 42.4413 5.06564 42.8377C5.32344 43.2341 5.49558 43.6792 5.57116 44.145C5.58317 44.6168 5.49638 45.0859 5.31628 45.5227C5.13618 45.9595 4.86669 46.3545 4.52483 46.6827C4.28067 46.9078 4.08447 47.1791 3.94784 47.4807C3.8112 47.7823 3.7369 48.1079 3.72933 48.4385C3.7897 48.7171 3.95794 48.9611 4.19785 49.118C4.43777 49.2749 4.73017 49.3321 5.01216 49.2773L7.37716 49.064L8.56683 48.9503C8.5254 48.511 8.57173 48.0679 8.70318 47.6464C8.83462 47.2249 9.04859 46.8332 9.33284 46.4938C9.61709 46.1544 9.96603 45.874 10.3597 45.6686C10.7534 45.4631 11.184 45.3367 11.627 45.2966C13.4832 45.1259 14.7158 47.294 14.7158 47.294L15.3035 48.339C15.3035 48.339 15.841 48.339 16.5003 48.2465L17.9337 48.1186C18.593 48.0617 19.1233 48.0049 19.1233 47.9978C19.0534 47.1179 19.3357 46.2462 19.9093 45.5714C20.4828 44.8966 21.3012 44.4732 22.1873 44.3927C23.0734 44.3123 23.9558 44.5815 24.6432 45.1418C25.3307 45.7022 25.7678 46.5086 25.86 47.3864L27.0568 47.294L28.8843 47.1234L30.074 47.0097C30.074 47.0097 30.246 46.4837 30.461 45.8652C30.461 45.8652 31.2708 43.5123 33.1342 43.3417C34.0275 43.2607 34.9167 43.535 35.6061 44.1042C36.2956 44.6734 36.7289 45.491 36.8107 46.377C36.8107 46.377 37.3482 46.377 38.0075 46.2846L38.5665 46.2349L39.7347 46.1069L40.1145 44.9696C40.1145 44.9696 40.9243 42.6096 42.7877 42.439C44.651 42.2684 45.8837 44.4364 45.8837 44.4364L46.4785 45.4885C46.4785 45.4885 47.016 45.4885 47.6682 45.3961L48.6285 45.3108L49.8182 45.1828C49.7772 44.7441 49.8238 44.3016 49.9553 43.8807C50.0867 43.4599 50.3004 43.0688 50.5843 42.7298C50.8681 42.3909 51.2165 42.1107 51.6095 41.9053C52.0025 41.6999 52.4324 41.5732 52.8747 41.5326C53.3171 41.492 53.7631 41.5382 54.1875 41.6686C54.6118 41.799 55.0061 42.011 55.3478 42.2925C55.6895 42.5741 55.972 42.9196 56.1791 43.3094C56.3862 43.6992 56.5139 44.1256 56.5548 44.5644C56.5548 44.5644 57.0923 44.5644 57.7517 44.472L59.9948 44.2658C60.6542 44.209 61.1917 44.1521 61.1845 44.145C61.1009 43.2514 61.3785 42.3614 61.9565 41.6708C62.5344 40.9803 63.3652 40.5458 64.2662 40.4628C65.1671 40.3799 66.0644 40.6553 66.7606 41.2285C67.4568 41.8018 67.8949 42.6258 67.9785 43.5194C67.9785 43.5194 68.516 43.5194 69.1682 43.427L70.6015 43.2991L71.7983 43.1782L72.1782 42.0409C72.1782 42.0409 72.988 39.6809 74.8513 39.5174C76.7147 39.3539 77.9402 41.5149 77.9402 41.5149C78.2698 42.0835 78.535 42.5527 78.535 42.5598L79.7247 42.4674L82.6917 42.1902C83.2937 42.1404 83.7953 41.7068 83.7452 41.2376ZM14.3647 31.4067C13.6515 31.7409 12.8896 31.9616 12.1072 32.0606L9.64899 32.2881C8.98966 32.345 8.44499 32.2881 8.43066 32.1459C8.42668 32.1155 8.42895 32.0846 8.43734 32.055C8.44574 32.0255 8.46008 31.9979 8.47949 31.974C8.49891 31.9501 8.52301 31.9303 8.55034 31.9159C8.57766 31.9015 8.60765 31.8927 8.63849 31.89C8.89119 31.8375 9.13336 31.7439 9.35516 31.6128C9.60599 31.4706 9.71349 30.312 9.64899 29.658L9.01116 22.7841C8.97594 22.2259 8.85261 21.6766 8.64566 21.1563C8.50233 20.9075 7.77133 20.7653 7.64233 20.7725C7.605 20.782 7.56588 20.7824 7.52838 20.7735C7.49088 20.7646 7.45613 20.7468 7.42717 20.7216C7.3982 20.6964 7.37589 20.6645 7.36217 20.6288C7.34846 20.593 7.34377 20.5545 7.34849 20.5165C7.34849 20.3815 7.86449 20.218 8.52383 20.1611L10.7957 19.955C11.5841 19.9064 12.3752 19.9832 13.1392 20.1825C13.1392 20.1825 15.239 20.8151 15.3823 22.379C15.4091 22.6975 15.3716 23.0181 15.2719 23.322C15.1722 23.6259 15.0124 23.9071 14.8018 24.149C14.6996 24.2465 14.6224 24.367 14.5767 24.5003C14.531 24.6335 14.5181 24.7757 14.5392 24.9149C14.5602 25.0541 14.6146 25.1862 14.6977 25.3003C14.7808 25.4144 14.8902 25.5071 15.0168 25.5706C15.0168 25.5706 16.7225 26.5161 16.8658 28.0444C17.045 30.0347 14.3647 31.4067 14.3647 31.4067ZM25.6952 31.1081L25.301 31.1437C24.9863 30.562 24.7914 29.9241 24.7277 29.267L24.3693 25.4143C24.312 24.7674 23.9465 24.7034 23.5667 25.201L21.2662 28.3785C20.9741 28.7352 20.7463 29.1392 20.5925 29.5727C20.6566 29.8243 20.7607 30.0643 20.9007 30.2835C21.0583 30.5394 21.8108 30.6958 21.9183 30.6887C21.9487 30.6877 21.979 30.6929 22.0073 30.704C22.0355 30.7151 22.0612 30.7318 22.0827 30.7531C22.1042 30.7745 22.1211 30.7999 22.1322 30.828C22.1434 30.856 22.1487 30.886 22.1477 30.9162C22.1477 31.0512 21.6388 31.2076 20.9795 31.2716L19.3742 31.4138C18.722 31.4778 18.1702 31.4138 18.1558 31.2787C18.1476 31.2175 18.1641 31.1556 18.2017 31.1063C18.2393 31.0571 18.2949 31.0245 18.3565 31.0157C18.6037 30.9685 18.8443 30.8922 19.0732 30.7882C19.3312 30.6745 19.4315 29.3666 19.367 28.7481L19.0517 25.3574C19.0159 24.7879 18.8851 24.2282 18.6647 23.7011C18.5142 23.4452 17.7688 23.2888 17.6542 23.3031C17.5939 23.3013 17.5366 23.2767 17.494 23.2345C17.4514 23.1922 17.4266 23.1353 17.4248 23.0756C17.4248 22.9405 17.9408 22.777 18.593 22.7202L20.1983 22.5709C20.8577 22.514 21.4023 22.5709 21.4167 22.7059C21.427 22.7672 21.4125 22.8301 21.3762 22.8807C21.3399 22.9313 21.2849 22.9656 21.2232 22.9761C20.976 23.0199 20.7353 23.094 20.5065 23.1964C20.2413 23.3173 20.1338 24.5826 20.1983 25.2365L20.3058 26.4379C20.3703 27.0847 20.7287 27.1843 21.1085 26.6511L23.3445 23.5305C23.7315 22.9974 24.2332 22.2865 24.4697 21.9525H24.8137L25.1863 21.9169C25.4934 22.5133 25.6831 23.1623 25.7453 23.8291L26.247 29.1959C26.3045 29.8487 26.2289 30.5063 26.0248 31.1294L25.6952 31.1081ZM40.9387 29.6864H40.5947C40.245 29.1189 39.9818 28.5033 39.8135 27.8596L38.2655 22.0449C38.1007 21.4122 37.8068 21.4122 37.6205 22.0449L35.7213 28.4425C35.5551 29.0319 35.2644 29.5795 34.8685 30.049C34.589 30.3049 33.7003 29.2386 33.4352 28.6273L29.4505 21.007C29.1495 20.4241 28.956 20.481 29.0133 21.135L29.6368 27.824C29.6759 28.381 29.7966 28.9294 29.9952 29.4518C30.1385 29.7006 30.8767 29.8428 30.9985 29.8357C31.0301 29.8328 31.062 29.8362 31.0923 29.8458C31.1226 29.8554 31.1506 29.871 31.1747 29.8915C31.1988 29.9121 31.2184 29.9373 31.2325 29.9655C31.2465 29.9938 31.2547 30.0246 31.2565 30.0561C31.2565 30.1911 30.7405 30.3546 30.0812 30.4115L28.956 30.5181C28.3038 30.575 27.752 30.5181 27.7448 30.3831C27.7367 30.32 27.7539 30.2562 27.7928 30.2057C27.8317 30.1551 27.8892 30.1218 27.9527 30.1129C28.2049 30.0591 28.4469 29.9655 28.6693 29.8357C28.9202 29.6935 29.0205 28.5349 28.9632 27.888L28.3253 21.0141C28.2838 20.4545 28.1607 19.9038 27.9598 19.3792C27.8165 19.1375 27.0783 18.9882 26.9565 19.0025C26.9245 19.0044 26.8924 19 26.8621 18.9896C26.8318 18.9792 26.8039 18.963 26.7799 18.9418C26.7559 18.9207 26.7364 18.8951 26.7224 18.8665C26.7085 18.8378 26.7003 18.8067 26.6985 18.775C26.6985 18.6399 27.2145 18.4835 27.8738 18.4196L28.5618 18.384C28.9115 18.3685 29.2588 18.4485 29.5659 18.6152C29.8729 18.7819 30.128 19.0289 30.3033 19.3294L33.8867 26.2459C34.1877 26.8288 34.6033 26.7933 34.7753 26.1606L36.9253 19.0522C37.0867 18.4333 37.4165 17.8702 37.8785 17.4244C38.2225 17.1827 38.8818 18.4196 39.0467 19.0522L41.2898 27.5255C41.4612 28.2228 41.5073 28.9447 41.426 29.658L40.9387 29.6864ZM50.0618 28.8619L49.6462 28.9045C49.4847 28.6355 49.3434 28.3552 49.2233 28.0657C49.2233 28.0017 48.7933 28.279 48.2702 28.6841C47.8567 28.9651 47.3731 29.1274 46.8727 29.1533C44.7227 29.3523 42.7375 27.4473 42.501 24.8882C42.2645 22.3292 43.8555 20.1043 46.0127 19.9123C46.5004 19.8582 46.9939 19.9292 47.446 20.1185C47.7667 20.3287 48.1239 20.4781 48.4995 20.5592C48.5585 20.2513 48.6449 19.9492 48.7575 19.6564L49.1732 19.6209H49.5817C49.8776 20.2151 50.0598 20.8587 50.1192 21.5188L50.6208 26.8999C50.6825 27.5593 50.6218 28.2242 50.4417 28.8619H50.0618ZM56.9418 28.2363C56.3507 28.2905 55.7573 28.1613 55.2433 27.8667C54.6915 27.5041 54.2902 27.7458 54.3475 28.3998L54.541 30.4115C54.5689 30.7262 54.4699 31.039 54.2657 31.2815C54.0616 31.524 53.7688 31.6763 53.4517 31.7052H53.337C52.6848 31.7621 52.1402 31.7052 52.1258 31.5631C52.1208 31.5321 52.1222 31.5004 52.1301 31.47C52.1381 31.4396 52.1522 31.4111 52.1717 31.3864C52.1912 31.3617 52.2157 31.3413 52.2436 31.3264C52.2714 31.3116 52.3021 31.3026 52.3337 31.3C52.5859 31.2462 52.8279 31.1526 53.0503 31.0228C53.3012 30.8806 53.4087 29.722 53.3442 29.0751L52.7063 22.2012C52.6648 21.6416 52.5417 21.0909 52.3408 20.5663C52.1975 20.3175 51.4593 20.1753 51.3375 20.1896C51.2733 20.1916 51.2108 20.1692 51.1628 20.1268C51.1148 20.0845 51.085 20.0256 51.0795 19.9621C51.0795 19.827 51.4092 19.6849 51.8392 19.6422C52.2646 19.6049 52.6934 19.6386 53.1077 19.7417C53.38 19.8341 53.6452 20.4526 53.6452 20.4526C53.6452 20.4526 54.0393 20.1114 54.5195 19.6564C54.9681 19.2725 55.5273 19.0387 56.1177 18.9882C58.3465 18.7821 60.0952 20.7156 60.3317 23.2533C60.5682 25.791 58.9915 28.0444 56.9132 28.2363H56.9418ZM68.8815 26.9141L68.5877 27.2553C67.9795 27.0013 67.4064 26.6717 66.882 26.2744L64.5528 24.5044C64.0297 24.1134 63.6427 24.2627 63.7 24.8385C63.7357 25.3538 63.8543 25.8601 64.0512 26.3384C64.1945 26.5872 64.9327 26.7293 65.0545 26.7222C65.0861 26.7193 65.118 26.7227 65.1483 26.7323C65.1786 26.7419 65.2066 26.7575 65.2307 26.778C65.2548 26.7986 65.2744 26.8238 65.2885 26.852C65.3025 26.8803 65.3107 26.9111 65.3125 26.9426C65.3125 27.0776 64.7965 27.2411 64.1372 27.298L62.3168 27.4686C61.6575 27.5255 61.1128 27.4686 61.0985 27.3335C61.0903 27.2704 61.1076 27.2067 61.1465 27.1561C61.1854 27.1056 61.2428 27.0723 61.3063 27.0634C61.5586 27.0096 61.8006 26.916 62.023 26.7862C62.2738 26.644 62.3813 25.4853 62.3168 24.8385L61.9943 21.3625C61.9563 20.8023 61.8331 20.2511 61.6288 19.7275C61.4855 19.4787 60.7545 19.3365 60.6255 19.3508C60.5613 19.3528 60.4988 19.3304 60.4508 19.2881C60.4028 19.2457 60.373 19.1868 60.3675 19.1233C60.3675 18.9882 60.8835 18.8319 61.5428 18.7679L61.9585 18.7323C62.2691 18.7125 62.5754 18.8135 62.8122 19.0139C63.049 19.2143 63.1978 19.4983 63.227 19.8057L63.2915 20.4455C63.3488 21.0923 63.7788 21.2487 64.2447 20.7867L65.936 19.0949C66.3903 18.6386 66.9277 18.2719 67.5198 18.0144L67.7707 18.2774L68.0358 18.5617C67.738 19.1309 67.3537 19.6511 66.8963 20.1043L65.2337 21.7747C65.124 21.8777 65.0387 22.0035 64.9838 22.143C64.9289 22.2825 64.9058 22.4324 64.9161 22.5818C64.9263 22.7312 64.9698 22.8765 65.0433 23.0074C65.1167 23.1382 65.2185 23.2513 65.3412 23.3386L67.7707 25.1797C68.2982 25.5829 68.762 26.0621 69.1467 26.6014L68.8815 26.9141ZM73.1815 26.7435C70.8523 26.9568 69.0463 25.0375 68.8098 22.4785C68.5733 19.9194 69.9923 17.7087 72.3215 17.5026C74.6507 17.2964 76.4495 19.2157 76.686 21.7676C76.9225 24.3196 75.5178 26.5303 73.1887 26.7435H73.1815Z" fill="white"/>
</g>
<g style="mix-blend-mode:multiply">
<path d="M7.06187 57.7789C6.8655 57.7755 6.67192 57.7321 6.49316 57.6514C6.3144 57.5707 6.15427 57.4544 6.02271 57.3098C6.10154 57.9851 6.13737 58.3191 6.20904 58.9944H5.27737C5.28089 58.9305 5.28089 58.8665 5.27737 58.8025H5.45654C5.50253 58.8031 5.54809 58.7937 5.59003 58.775C5.63197 58.7562 5.66927 58.7286 5.69932 58.6941C5.72936 58.6595 5.75142 58.6189 5.76396 58.575C5.77649 58.5311 5.77919 58.485 5.77187 58.44C5.62137 57.0183 5.54254 56.3075 5.38487 54.8858C5.37309 54.7888 5.327 54.6992 5.25482 54.6328C5.18264 54.5664 5.08905 54.5276 4.99071 54.5232H4.79004C4.79355 54.4593 4.79355 54.3952 4.79004 54.3313H5.38487C5.48447 54.334 5.57978 54.3721 5.65344 54.4386C5.7271 54.5052 5.77422 54.5957 5.78621 54.6939C5.89264 54.5462 6.03218 54.425 6.19385 54.3399C6.35552 54.2548 6.5349 54.208 6.71787 54.2034C7.15913 54.2452 7.56947 54.4464 7.87078 54.7689C8.1721 55.0914 8.34333 55.5125 8.35187 55.952C8.40326 56.1572 8.4097 56.3709 8.37076 56.5787C8.33183 56.7865 8.24842 56.9836 8.12617 57.1568C8.00391 57.3299 7.84565 57.475 7.66206 57.5823C7.47846 57.6897 7.2738 57.7567 7.06187 57.7789ZM6.67487 54.772C6.16604 54.772 5.80771 55.3336 5.88654 56.016C5.96537 56.6984 6.43837 57.2458 6.94721 57.2387C7.45604 57.2316 7.80721 56.67 7.73554 55.9876C7.73317 55.6964 7.62787 55.4152 7.43798 55.1931C7.24809 54.971 6.98564 54.822 6.69637 54.772H6.67487Z" fill="white"/>
</g>
<g style="mix-blend-mode:multiply">
<path d="M9.34802 55.945C9.42685 56.6558 9.72785 57.2316 10.4374 57.2032C10.5684 57.1994 10.6971 57.1676 10.8146 57.1099C10.9321 57.0523 11.0357 56.9701 11.1182 56.8691C11.1371 56.8403 11.1625 56.8164 11.1923 56.7991C11.2222 56.7818 11.2557 56.7717 11.2902 56.7695C11.3563 56.7675 11.4206 56.7907 11.47 56.8343C11.5193 56.878 11.5499 56.9388 11.5554 57.0041C11.5624 57.0643 11.5471 57.1249 11.5124 57.1747C11.3856 57.3241 11.2292 57.4461 11.0529 57.5329C10.8766 57.6197 10.6841 57.6696 10.4875 57.6794C9.35519 57.7292 8.81769 56.9686 8.71019 55.9521C8.60269 54.9356 9.07569 54.1607 9.89985 54.1323C10.724 54.1039 11.3332 54.8005 11.4765 55.8454C10.6452 55.9023 10.2009 55.9165 9.34802 55.945ZM9.92135 54.3598C9.39819 54.3598 9.25485 54.9853 9.32652 55.7317L10.81 55.6748C10.7169 54.9285 10.4445 54.3385 9.92852 54.3598H9.92135Z" fill="white"/>
</g>
<g style="mix-blend-mode:multiply">
<path d="M13.8917 54.9641C13.7853 54.9684 13.6811 54.9327 13.6001 54.8642C13.5191 54.7956 13.4671 54.6993 13.4545 54.5944C13.4545 54.4451 13.7412 54.2106 13.1679 54.2461C12.5945 54.2816 12.2362 54.8148 12.3294 55.6678C12.4082 56.3786 12.8024 57.0113 13.4402 56.9757C13.8989 56.9757 13.9347 56.6488 14.1569 56.6345C14.2299 56.6286 14.3024 56.6513 14.3587 56.6979C14.415 56.7444 14.4506 56.811 14.4579 56.8833C14.4937 57.1961 13.8989 57.4876 13.4975 57.516C13.2811 57.5188 13.0663 57.479 12.8656 57.3988C12.6649 57.3186 12.4822 57.1997 12.3282 57.0489C12.1742 56.8981 12.0519 56.7185 11.9684 56.5205C11.885 56.3224 11.842 56.1099 11.842 55.8953C11.7202 54.7721 12.315 54.0186 13.1392 53.9689C13.5119 53.9689 14.1927 54.1253 14.2357 54.5304C14.2449 54.5817 14.243 54.6344 14.2303 54.6849C14.2175 54.7355 14.1941 54.7828 14.1616 54.8237C14.1292 54.8646 14.0883 54.8983 14.0418 54.9225C13.9953 54.9467 13.9441 54.9609 13.8917 54.9641Z" fill="white"/>
</g>
<g style="mix-blend-mode:multiply">
<path d="M16.6723 54.3385L16.0129 54.3953L16.2996 57.0397C16.3036 57.077 16.3 57.1148 16.2892 57.1508C16.2783 57.1868 16.2604 57.2203 16.2364 57.2494C16.2124 57.2785 16.1828 57.3026 16.1494 57.3203C16.116 57.338 16.0793 57.3489 16.0416 57.3524C15.9637 57.3549 15.8876 57.3287 15.8281 57.2788C15.7685 57.2289 15.7297 57.1589 15.7191 57.0823L15.3966 54.1608H15.0598C15.0061 54.1652 14.9538 54.1802 14.9059 54.2048C14.858 54.2294 14.8156 54.2632 14.7809 54.3041C14.7463 54.3451 14.7202 54.3925 14.7041 54.4435C14.688 54.4945 14.6822 54.5482 14.6871 54.6015C14.6871 54.6939 14.6871 54.7365 14.6871 54.8289H14.5294C14.4936 54.4948 14.4721 54.3242 14.4363 53.9901L16.5863 53.8267C16.6524 53.8226 16.7176 53.844 16.7683 53.8863C16.819 53.9287 16.8514 53.9888 16.8586 54.0541C16.8671 54.085 16.8688 54.1173 16.8638 54.149C16.8588 54.1806 16.8471 54.2108 16.8296 54.2376C16.812 54.2645 16.7889 54.2873 16.7618 54.3047C16.7347 54.3221 16.7042 54.3336 16.6723 54.3385Z" fill="white"/>
</g>
<g style="mix-blend-mode:multiply">
<path d="M18.8079 57.1108C18.5872 57.1174 18.3674 57.0803 18.1612 57.0018C17.9551 56.9232 17.7668 56.8047 17.6073 56.6531C17.4479 56.5016 17.3205 56.3201 17.2325 56.1192C17.1446 55.9182 17.0979 55.702 17.0951 55.4829C17.0495 55.2729 17.0475 55.0559 17.089 54.8451C17.1306 54.6343 17.215 54.434 17.3369 54.2565C17.4589 54.079 17.616 53.928 17.7987 53.8125C17.9813 53.6971 18.1857 53.6197 18.3994 53.585C18.6184 53.5803 18.8361 53.6185 19.0401 53.6975C19.2441 53.7765 19.4304 53.8947 19.5882 54.0453C19.7461 54.1959 19.8723 54.3759 19.9598 54.5751C20.0473 54.7742 20.0942 54.9885 20.0979 55.2057C20.1447 55.4152 20.1481 55.6319 20.108 55.8428C20.0678 56.0536 19.9849 56.2541 19.8643 56.4323C19.7437 56.6104 19.5879 56.7624 19.4063 56.879C19.2247 56.9956 19.0211 57.0745 18.8079 57.1108ZM18.4711 54.0044C18.4711 53.9191 18.4711 53.8764 18.4711 53.7911C17.8548 53.848 17.6613 54.7437 17.7544 55.4332C17.8476 56.1227 18.2489 56.7482 18.8079 56.6985C19.3669 56.6487 19.6464 55.9876 19.5676 55.2768C19.4888 54.566 19.0301 53.9262 18.4711 54.0044Z" fill="white"/>
</g>
<g style="mix-blend-mode:multiply">
<path d="M22.4201 56.7695C22.2303 56.7817 22.0401 56.7524 21.863 56.6836C21.6859 56.6148 21.5262 56.5082 21.3953 56.3714C21.4669 57.0396 21.5028 57.3737 21.5816 58.0419L20.6284 58.1414C20.6284 58.0632 20.6284 58.0277 20.6284 57.9495H20.8076C20.9015 57.9388 20.9874 57.8917 21.0464 57.8184C21.1055 57.7452 21.133 57.6518 21.1229 57.5585C20.9653 56.1369 20.8936 55.426 20.7359 54.0043C20.7234 53.91 20.6747 53.8242 20.5999 53.7646C20.5252 53.705 20.4301 53.6763 20.3346 53.6844H20.1626C20.1626 53.6063 20.1626 53.5707 20.1626 53.4925L20.7574 53.4356C20.8522 53.4276 20.9463 53.4566 21.0199 53.5163C21.0935 53.576 21.1408 53.6618 21.1516 53.7555C21.2571 53.5991 21.3945 53.4663 21.555 53.3659C21.7155 53.2655 21.8955 53.1996 22.0833 53.1726C22.2977 53.1679 22.5109 53.2058 22.7103 53.2841C22.9097 53.3625 23.0912 53.4796 23.2442 53.6287C23.3972 53.7778 23.5185 53.9558 23.601 54.1522C23.6835 54.3485 23.7254 54.5593 23.7244 54.772C23.7769 54.9885 23.7844 55.2132 23.7465 55.4326C23.7087 55.652 23.6262 55.8615 23.5042 56.0483C23.3823 56.2351 23.2232 56.3954 23.0369 56.5194C22.8505 56.6433 22.6407 56.7284 22.4201 56.7695ZM22.0331 53.7911C21.7541 53.8695 21.5161 54.0511 21.3681 54.2984C21.2201 54.5457 21.1734 54.8399 21.2376 55.1203C21.3093 55.7885 21.7894 56.2932 22.2983 56.2364C22.5757 56.158 22.8125 55.9775 22.9604 55.7318C23.1082 55.4861 23.1559 55.1936 23.0938 54.9142C23.0149 54.2105 22.5419 53.7129 22.0331 53.7626V53.7911Z" fill="white"/>
</g>
<g style="mix-blend-mode:multiply">
<path d="M26.9493 56.1937C26.912 56.1987 26.8741 56.1961 26.8378 56.1862C26.8016 56.1762 26.7677 56.1591 26.7383 56.1359C26.7088 56.1127 26.6844 56.0838 26.6665 56.051C26.6486 56.0182 26.6375 55.9821 26.634 55.9449C26.6304 55.9142 26.6304 55.8832 26.634 55.8525C26.4093 56.1209 26.0931 56.298 25.7453 56.3501C25.5298 56.3568 25.315 56.3212 25.1133 56.2455C24.9117 56.1697 24.727 56.0553 24.5699 55.9087C24.4129 55.7622 24.2864 55.5864 24.1979 55.3913C24.1094 55.1963 24.0605 54.9858 24.054 54.772C23.977 54.3442 24.0698 53.9033 24.3129 53.5417C24.5559 53.18 24.9305 52.9256 25.3583 52.8314C25.7027 52.7952 26.0482 52.8892 26.3258 53.0945C26.3223 53.0638 26.3223 53.0327 26.3258 53.002C26.3208 52.9647 26.3234 52.9267 26.3333 52.8903C26.3432 52.8539 26.3604 52.8198 26.3837 52.79C26.4071 52.7602 26.4361 52.7354 26.4693 52.7169C26.5024 52.6983 26.5389 52.6866 26.5767 52.6822C26.6143 52.6772 26.6527 52.6797 26.6894 52.6896C26.7261 52.6994 26.7604 52.7164 26.7904 52.7396C26.8204 52.7627 26.8455 52.7916 26.8642 52.8244C26.8828 52.8573 26.8947 52.8935 26.8992 52.931C27.0353 54.1039 27.0998 54.6939 27.2288 55.8667C27.233 55.9463 27.2064 56.0244 27.1544 56.0852C27.1025 56.146 27.0291 56.1848 26.9493 56.1937ZM25.4085 53.3504C25.1303 53.4318 24.8939 53.6153 24.7474 53.8636C24.6009 54.1119 24.5554 54.4063 24.6202 54.6867C24.6918 55.3549 25.172 55.8525 25.6808 55.7885C25.959 55.7072 26.1955 55.5236 26.3419 55.2753C26.4884 55.027 26.5339 54.7326 26.4692 54.4522C26.4118 53.7982 25.9173 53.3077 25.4085 53.3717V53.3504Z" fill="white"/>
</g>
<g style="mix-blend-mode:multiply">
<path d="M30.4681 55.7104C30.4331 55.7175 30.397 55.7174 30.3621 55.71C30.3272 55.7026 30.2942 55.688 30.2652 55.6673C30.2363 55.6466 30.2119 55.6202 30.1938 55.5896C30.1757 55.5591 30.1641 55.5252 30.1599 55.49L29.9951 54.2176L28.4256 54.438C28.4256 54.7792 28.4829 54.9569 28.5187 55.2981C28.522 55.3483 28.5358 55.3972 28.5595 55.4416C28.5832 55.4861 28.6161 55.525 28.656 55.5559C28.696 55.5868 28.7421 55.609 28.7913 55.6209C28.8405 55.6328 28.8918 55.6342 28.9416 55.6251H29.0921C29.0952 55.6867 29.0952 55.7483 29.0921 55.8099L27.5727 56.0232C27.5763 55.9592 27.5763 55.8952 27.5727 55.8312H27.7447C27.7943 55.8261 27.8422 55.8109 27.8856 55.7868C27.929 55.7626 27.967 55.7298 27.9972 55.6905C28.0274 55.6513 28.0492 55.6063 28.0612 55.5584C28.0733 55.5104 28.0753 55.4606 28.0672 55.4118C27.9741 54.5375 27.9239 54.1039 27.8307 53.2296C27.8265 53.1798 27.8119 53.1315 27.7879 53.0876C27.7639 53.0437 27.731 53.0052 27.6913 52.9745C27.6516 52.9438 27.6059 52.9216 27.5572 52.9092C27.5084 52.8968 27.4576 52.8946 27.4079 52.9026H27.2502C27.2534 52.841 27.2534 52.7793 27.2502 52.7177L28.7696 52.5045C28.7731 52.5684 28.7731 52.6325 28.7696 52.6964H28.6119C28.5123 52.7072 28.421 52.7565 28.3579 52.8338C28.2948 52.911 28.265 53.0098 28.2751 53.1087C28.3181 53.4499 28.3324 53.6134 28.3682 53.9475L29.9449 53.7343C29.8876 53.2438 29.8589 53.0234 29.8087 52.5116C29.8064 52.4408 29.8308 52.3716 29.8772 52.3177C29.9236 52.2638 29.9887 52.229 30.0596 52.2202C30.095 52.2119 30.1317 52.2109 30.1674 52.2173C30.2032 52.2237 30.2373 52.2373 30.2675 52.2573C30.2978 52.2773 30.3235 52.3033 30.3433 52.3335C30.363 52.3638 30.3762 52.3978 30.3821 52.4334C30.5111 53.6276 30.5756 54.2247 30.7117 55.419C30.7476 55.5682 30.5827 55.6962 30.4681 55.7104Z" fill="white"/>
</g>
<g style="mix-blend-mode:multiply">
<path d="M36.1656 55.81C36.1307 55.8171 36.0946 55.817 36.0597 55.8095C36.0247 55.8021 35.9917 55.7876 35.9628 55.7669C35.9338 55.7462 35.9095 55.7197 35.8914 55.6892C35.8732 55.6587 35.8617 55.6248 35.8575 55.5896C35.8575 55.2768 35.8073 55.1276 35.7715 54.8148L33.729 55.1276C33.4925 55.1276 33.2345 55.6251 33.299 56.208H33.127L32.9836 54.8859H33.17C33.2446 54.8759 33.3171 54.8543 33.385 54.8219C33.6613 54.4607 33.8189 54.0239 33.8365 53.5708C33.865 53.2468 33.865 52.921 33.8365 52.597C33.8308 52.4413 33.7993 52.2876 33.7433 52.142C33.7075 52.0709 33.6143 51.9856 33.385 52.0283H33.256C33.256 51.9501 33.256 51.9145 33.256 51.8363L35.535 51.488C35.664 52.6183 35.7285 53.187 35.8503 54.3314L36.3161 54.2603C36.3735 54.765 36.395 55.0138 36.4523 55.5114C36.4524 55.5882 36.4227 55.6621 36.3693 55.7176C36.3159 55.7732 36.243 55.8063 36.1656 55.81ZM35.0118 52.0638L34.0945 52.206V52.4903C34.1277 52.8426 34.1277 53.1972 34.0945 53.5495C34.0697 53.9252 33.9775 54.2935 33.8221 54.6371L35.2555 54.4167C35.1336 53.4784 35.0835 53.0021 35.0118 52.0638Z" fill="white"/>
</g>
<g style="mix-blend-mode:multiply">
<path d="M39.2474 54.3669C39.2109 54.374 39.1733 54.3734 39.1371 54.3652C39.1009 54.357 39.0668 54.3413 39.037 54.3192C39.0073 54.2971 38.9826 54.269 38.9645 54.2368C38.9464 54.2046 38.9354 54.169 38.932 54.1323C38.9285 54.1016 38.9285 54.0706 38.932 54.0399C38.7074 54.3134 38.3927 54.4997 38.0434 54.5659C37.831 54.5814 37.6178 54.554 37.4164 54.4855C37.215 54.4169 37.0297 54.3087 36.8717 54.1672C36.7136 54.0257 36.5861 53.8539 36.4968 53.6622C36.4075 53.4705 36.3582 53.2629 36.352 53.0518C36.2827 52.6224 36.3771 52.1827 36.617 51.8186C36.8568 51.4546 37.2248 51.1922 37.6492 51.0828C37.9893 51.0305 38.3365 51.1121 38.6167 51.3102C38.6167 51.2747 38.6167 51.2534 38.6167 51.2178C38.6065 51.1415 38.6272 51.0643 38.6741 51.003C38.7211 50.9418 38.7907 50.9014 38.8675 50.8908C38.9048 50.8837 38.9432 50.8842 38.9803 50.8923C39.0173 50.9004 39.0524 50.9159 39.0832 50.9378C39.1141 50.9598 39.1401 50.9877 39.1597 51.02C39.1793 51.0522 39.192 51.0881 39.1972 51.1254L39.5197 54.0612C39.5187 54.1361 39.4907 54.208 39.4407 54.2641C39.3907 54.3202 39.3221 54.3567 39.2474 54.3669ZM37.7065 51.5946C37.4299 51.6875 37.197 51.8775 37.0518 52.1289C36.9066 52.3803 36.8591 52.6757 36.9182 52.9594C36.9899 53.6276 37.47 54.111 37.9789 54.0257C38.2583 53.9369 38.4942 53.7476 38.6401 53.495C38.786 53.2424 38.8313 52.9449 38.7672 52.6608C38.6955 51.9927 38.2154 51.5164 37.7065 51.5946Z" fill="white"/>
</g>
<g style="mix-blend-mode:multiply">
<path d="M41.8131 50.8909L40.8958 51.0402C40.8958 51.3601 40.9531 51.5236 40.9889 51.8435C41.0287 52.1761 41.0478 52.5108 41.0463 52.8458C41.0524 53.126 41.0087 53.4051 40.9173 53.6703C40.8692 53.8013 40.7855 53.9164 40.6755 54.003C40.5654 54.0896 40.4333 54.1442 40.2938 54.1608C40.1379 54.1947 39.9749 54.1657 39.8405 54.0804C39.7061 53.9951 39.6114 53.8604 39.5771 53.7059C39.5658 53.6511 39.5658 53.5947 39.5771 53.5399C39.5884 53.4852 39.6109 53.4333 39.643 53.3874C39.6752 53.3416 39.7165 53.3027 39.7643 53.2731C39.8121 53.2435 39.8654 53.2239 39.9211 53.2154C39.9659 53.2073 40.012 53.2083 40.0564 53.2184C40.1008 53.2284 40.1427 53.2473 40.1795 53.2739C40.2164 53.3005 40.2474 53.3342 40.2707 53.373C40.2941 53.4118 40.3092 53.4549 40.3153 53.4997C40.3153 53.6064 40.3153 53.649 40.3153 53.7059C40.316 53.7203 40.3199 53.7345 40.3266 53.7473C40.3334 53.7601 40.3429 53.7713 40.3545 53.7801C40.3661 53.7889 40.3795 53.7951 40.3938 53.7983C40.4081 53.8014 40.4228 53.8014 40.4371 53.7983C40.4801 53.7983 40.6234 53.7343 40.6879 53.4357C40.732 53.2277 40.7537 53.0157 40.7524 52.8031C40.7524 52.4903 40.7166 52.0923 40.6808 51.7511C40.6808 51.5449 40.6449 51.4383 40.6234 51.225C40.6223 51.1776 40.6101 51.131 40.5877 51.0891C40.5654 51.0471 40.5334 51.0109 40.4945 50.9833C40.4555 50.9557 40.4106 50.9375 40.3634 50.9301C40.3161 50.9227 40.2677 50.9263 40.2221 50.9407H40.0573C40.0573 50.8696 40.0573 50.827 40.0573 50.7559L42.3291 50.3862C42.4724 51.6444 42.5369 52.27 42.6803 53.5282C42.6811 53.5967 42.6568 53.6633 42.612 53.7155C42.5673 53.7678 42.505 53.8022 42.4366 53.8125C42.4036 53.8209 42.3693 53.8225 42.3356 53.8173C42.302 53.8121 42.2698 53.8001 42.241 53.7822C42.2121 53.7642 42.1873 53.7406 42.1679 53.7129C42.1486 53.6851 42.1352 53.6537 42.1284 53.6206C41.9994 52.5472 41.9349 51.9927 41.8131 50.8909Z" fill="white"/>
</g>
<g style="mix-blend-mode:multiply">
<path d="M44.6295 53.3859L43.1961 53.6276C43.193 53.5661 43.193 53.5044 43.1961 53.4428H43.3681C43.4651 53.4287 43.5529 53.3779 43.613 53.301C43.6731 53.2242 43.7009 53.1273 43.6906 53.0305C43.5903 52.1491 43.5401 51.7084 43.447 50.8198C43.4409 50.7741 43.4256 50.7301 43.4019 50.6904C43.3782 50.6507 43.3466 50.6162 43.3091 50.589C43.2716 50.5617 43.2289 50.5423 43.1836 50.5319C43.1383 50.5215 43.0914 50.5203 43.0456 50.5284H42.8665C42.8665 50.4502 42.8665 50.4146 42.8665 50.3435L43.4541 50.244C43.5004 50.236 43.5479 50.2374 43.5936 50.2483C43.6393 50.2591 43.6823 50.2792 43.7199 50.3071C43.7575 50.3351 43.789 50.3704 43.8123 50.4109C43.8356 50.4514 43.8503 50.4962 43.8555 50.5426L43.963 51.5164L44.4073 51.4453C44.5369 51.4119 44.6723 51.4066 44.8043 51.4297C44.9362 51.4529 45.0615 51.504 45.1717 51.5795C45.2819 51.6551 45.3744 51.7534 45.4428 51.8676C45.5113 51.9818 45.5541 52.1094 45.5683 52.2415C45.5862 52.3784 45.5758 52.5175 45.5378 52.6503C45.4997 52.7831 45.4348 52.9068 45.3469 53.0139C45.2591 53.121 45.1501 53.2092 45.0268 53.2732C44.9034 53.3371 44.7682 53.3755 44.6295 53.3859ZM44.35 51.9643L43.9558 52.0353L44.0633 53.0163L44.4575 52.9523C44.5277 52.9454 44.5958 52.9244 44.6576 52.8906C44.7195 52.8569 44.7738 52.8111 44.8173 52.7559C44.8608 52.7008 44.8927 52.6375 44.9109 52.5699C44.9291 52.5022 44.9333 52.4316 44.9233 52.3623C44.9203 52.2921 44.9015 52.2234 44.8682 52.1614C44.8349 52.0993 44.7879 52.0455 44.7308 52.0039C44.6737 51.9623 44.6079 51.9339 44.5383 51.9209C44.4686 51.9079 44.3969 51.9106 44.3285 51.9287L44.35 51.9643Z" fill="white"/>
</g>
<g style="mix-blend-mode:multiply">
<path d="M48.7073 52.8244C48.6729 52.8315 48.6373 52.8316 48.6028 52.8247C48.5683 52.8177 48.5356 52.8038 48.5068 52.7838C48.4779 52.7638 48.4535 52.7382 48.435 52.7085C48.4164 52.6788 48.4043 52.6457 48.3991 52.6111L48.2558 51.3387L46.6863 51.5946C46.6863 51.9429 46.7436 52.1135 46.7795 52.4547C46.7813 52.5052 46.7944 52.5545 46.8177 52.5993C46.8411 52.6442 46.8742 52.6833 46.9146 52.7138C46.9551 52.7444 47.0018 52.7658 47.0516 52.7763C47.1013 52.7868 47.1528 52.7862 47.2023 52.7746H47.3528C47.3559 52.8362 47.3559 52.8979 47.3528 52.9594L45.855 53.2153C45.8585 53.1514 45.8585 53.0874 45.855 53.0234H46.027C46.0764 53.0164 46.1239 52.9999 46.1669 52.9747C46.2099 52.9495 46.2474 52.9161 46.2774 52.8765C46.3073 52.8369 46.3291 52.7918 46.3415 52.7438C46.3538 52.6958 46.3566 52.6459 46.3495 52.5969C46.2563 51.7297 46.2061 51.289 46.113 50.4217C46.1101 50.3719 46.0963 50.3234 46.0725 50.2794C46.0487 50.2355 46.0155 50.1973 45.9752 50.1674C45.9349 50.1376 45.8884 50.1169 45.8392 50.1068C45.7899 50.0967 45.7391 50.0974 45.6901 50.109H45.5325C45.5325 50.0308 45.5325 49.9952 45.5325 49.9241L47.0088 49.6611C47.0123 49.7251 47.0123 49.7891 47.0088 49.8531H46.844C46.746 49.8719 46.6583 49.9257 46.5976 50.0043C46.5368 50.0829 46.5072 50.1808 46.5143 50.2796C46.5573 50.6137 46.5716 50.7843 46.6075 51.1184L48.177 50.8625C48.1268 50.372 48.0981 50.1516 48.048 49.6469C48.0452 49.5744 48.0692 49.5034 48.1153 49.4472C48.1615 49.3909 48.2267 49.3533 48.2988 49.3413C48.3342 49.333 48.3709 49.332 48.4067 49.3384C48.4424 49.3448 48.4765 49.3584 48.5067 49.3784C48.537 49.3984 48.5628 49.4244 48.5825 49.4546C48.6022 49.4849 48.6154 49.5189 48.6213 49.5545C48.7503 50.7416 48.8148 51.3387 48.951 52.5329C48.9868 52.668 48.822 52.8031 48.7073 52.8244Z" fill="white"/>
</g>
<g style="mix-blend-mode:multiply">
<path d="M52.2692 52.2557C52.232 52.2618 52.194 52.2606 52.1573 52.2521C52.1206 52.2436 52.0859 52.228 52.0553 52.2062C52.0247 52.1844 51.9987 52.1569 51.9788 52.1251C51.959 52.0933 51.9456 52.058 51.9395 52.0211C51.8392 51.0828 51.7819 50.5994 51.6815 49.6682L50.3055 51.7155C50.309 51.7723 50.309 51.8292 50.3055 51.8861C50.3081 51.9357 50.3218 51.9842 50.3457 52.0279C50.3696 52.0716 50.403 52.1095 50.4435 52.1388C50.484 52.1681 50.5306 52.1881 50.5799 52.1972C50.6292 52.2064 50.6799 52.2045 50.7284 52.1917H50.886C50.886 52.2628 50.886 52.3055 50.886 52.3765L49.3667 52.6253C49.3706 52.5638 49.3706 52.5021 49.3667 52.4405H49.5387C49.6377 52.4247 49.7266 52.3714 49.7868 52.2919C49.8469 52.2123 49.8736 52.1127 49.8612 52.014C49.768 51.1397 49.7179 50.7061 49.6175 49.8317C49.6145 49.7827 49.6008 49.7349 49.5775 49.6915C49.5541 49.6482 49.5215 49.6104 49.4821 49.5807C49.4426 49.551 49.3971 49.5301 49.3488 49.5194C49.3004 49.5088 49.2503 49.5086 49.2019 49.519H49.0442C49.0442 49.4408 49.0442 49.4052 49.0442 49.3341L50.5635 49.0853C50.5635 49.1635 50.5635 49.1991 50.5635 49.2702H50.3987C50.2979 49.2843 50.2065 49.3367 50.1437 49.4162C50.0809 49.4957 50.0516 49.5962 50.0619 49.6967C50.1264 50.2369 50.155 50.507 50.2124 51.0473L51.5597 49.0214C51.6314 48.9218 51.7174 48.7797 51.8535 48.7584C51.8912 48.7498 51.9304 48.7498 51.9681 48.7583C52.0059 48.7669 52.0412 48.7837 52.0715 48.8076C52.1017 48.8315 52.1262 48.8618 52.1431 48.8964C52.1599 48.9309 52.1687 48.9688 52.1689 49.0071L52.4914 51.9287C52.4978 52.0002 52.4792 52.0718 52.4388 52.1313C52.3983 52.1909 52.3384 52.2348 52.2692 52.2557Z" fill="white"/>
</g>
<g style="mix-blend-mode:multiply">
<path d="M55.8667 51.6871C55.825 51.6925 55.7826 51.6882 55.7428 51.6747C55.703 51.6611 55.667 51.6386 55.6374 51.6089L54.4621 50.4218L53.9318 51.3316C53.7669 51.616 53.8458 51.7013 54.1109 51.6586H54.2829C54.2829 51.7297 54.2829 51.7653 54.2829 51.8435L52.7564 52.078C52.7564 52.0069 52.7564 51.9714 52.7564 51.8932L53.1219 51.8363C53.3011 51.8363 53.4158 51.68 53.5734 51.4027L54.2901 50.2441C53.8744 49.8318 53.6666 49.6256 53.2581 49.2062C53.0359 48.993 52.8998 48.9077 52.7278 48.9361H52.5486C52.5486 48.8579 52.5486 48.8224 52.5486 48.7442L54.1898 48.4883C54.1898 48.5594 54.1898 48.602 54.1898 48.6731H54.0177C53.7454 48.7157 53.6952 48.8224 53.9174 49.0498L54.4191 49.5545L55.1357 48.3106C55.1568 48.2739 55.1857 48.2421 55.2203 48.2176C55.255 48.193 55.2946 48.1763 55.3364 48.1684C55.3722 48.1634 55.4087 48.1655 55.4436 48.1747C55.4786 48.1838 55.5114 48.1998 55.5401 48.2216C55.5688 48.2434 55.5928 48.2707 55.6107 48.3019C55.6287 48.333 55.6402 48.3674 55.6446 48.403C55.6504 48.4631 55.6352 48.5233 55.6016 48.5736L54.7917 49.9739L56.0316 51.225C56.073 51.2682 56.1005 51.3226 56.1104 51.3814C56.1167 51.4535 56.095 51.5253 56.0497 51.5821C56.0044 51.6389 55.939 51.6765 55.8667 51.6871Z" fill="white"/>
</g>
<g style="mix-blend-mode:multiply">
<path d="M60.8549 50.962C60.7848 50.9701 60.7142 50.951 60.6581 50.9085C60.6019 50.8661 60.5646 50.8037 60.5539 50.7345C60.4321 49.6753 60.3748 49.1422 60.2529 48.0759L58.6763 48.3034L58.9271 50.5639C58.9309 50.614 58.9457 50.6627 58.9703 50.7066C58.9949 50.7505 59.0287 50.7886 59.0696 50.8184C59.1104 50.8481 59.1573 50.8687 59.2069 50.8787C59.2565 50.8888 59.3078 50.8881 59.3571 50.8767H59.5076C59.5076 50.9477 59.5076 50.9833 59.5076 51.0615L57.9883 51.2818C57.9922 51.2203 57.9922 51.1586 57.9883 51.097H58.1603C58.2094 51.0909 58.2568 51.0752 58.2997 51.0507C58.3426 51.0262 58.3802 50.9935 58.4102 50.9544C58.4402 50.9154 58.4621 50.8708 58.4746 50.8233C58.487 50.7757 58.4898 50.7262 58.4828 50.6776C58.3896 49.8033 58.3394 49.3697 58.2391 48.4953C58.2371 48.4457 58.2241 48.397 58.2012 48.3529C58.1782 48.3087 58.1458 48.27 58.1063 48.2395C58.0667 48.2091 58.0208 48.1875 57.972 48.1765C57.9231 48.1654 57.8724 48.1651 57.8234 48.1755H57.6658C57.6658 48.1044 57.6658 48.0688 57.6658 47.9906L60.5324 47.5783C60.6036 47.5756 60.6734 47.5986 60.7288 47.643C60.7841 47.6875 60.8213 47.7504 60.8334 47.82C60.9624 48.9645 61.0269 49.5403 61.1488 50.6634C61.1488 50.7414 61.1181 50.8163 61.0632 50.872C61.0082 50.9278 60.9335 50.9601 60.8549 50.962Z" fill="white"/>
</g>
<g style="mix-blend-mode:multiply">
<path d="M63.4134 47.5286L62.5032 47.6495C62.5032 47.9694 62.5534 48.1328 62.5892 48.4598C62.6325 48.7921 62.6517 49.1271 62.6465 49.4621C62.6505 49.7417 62.6094 50.02 62.5247 50.2867C62.4778 50.4164 62.3939 50.5299 62.2832 50.6132C62.1725 50.6964 62.0398 50.746 61.9012 50.7559C61.7441 50.7819 61.5829 50.748 61.4499 50.6609C61.317 50.5739 61.2222 50.4402 61.1845 50.2867C61.1657 50.1765 61.1912 50.0635 61.2555 49.9717C61.3198 49.88 61.4179 49.817 61.5285 49.7962C61.6207 49.7841 61.714 49.8087 61.7878 49.8647C61.8617 49.9206 61.9102 50.0034 61.9227 50.0948C61.9227 50.2014 61.9227 50.2512 61.9227 50.308C61.9244 50.3219 61.9289 50.3352 61.9361 50.3472C61.9433 50.3592 61.953 50.3695 61.9645 50.3776C61.976 50.3856 61.989 50.3912 62.0028 50.3939C62.0166 50.3966 62.0308 50.3964 62.0445 50.3933C62.0875 50.3933 62.2309 50.3365 62.2954 50.0379C62.3401 49.8324 62.3618 49.6226 62.3599 49.4124C62.3558 49.0606 62.3318 48.7094 62.2882 48.3603C62.2882 48.1471 62.2882 48.0404 62.2309 47.8272C62.2306 47.7799 62.2192 47.7334 62.1977 47.6912C62.1762 47.6491 62.1451 47.6124 62.1069 47.5842C62.0687 47.556 62.0244 47.5369 61.9775 47.5285C61.9307 47.5201 61.8825 47.5226 61.8367 47.5357H61.6719C61.6719 47.4647 61.6719 47.4291 61.6719 47.3509C62.582 47.223 63.0407 47.1661 63.9509 47.0524C64.087 48.3106 64.1587 48.9432 64.2949 50.2085C64.2971 50.2748 64.2739 50.3395 64.2301 50.3896C64.1862 50.4397 64.1249 50.4715 64.0584 50.4786C64.0244 50.487 63.9892 50.4884 63.9547 50.4828C63.9202 50.4773 63.8872 50.4648 63.8577 50.4462C63.8282 50.4275 63.8028 50.4032 63.7831 50.3746C63.7634 50.3459 63.7498 50.3136 63.743 50.2796C63.5997 49.2133 63.5352 48.6589 63.4134 47.5286Z" fill="white"/>
</g>
<g style="mix-blend-mode:multiply">
<path d="M67.5485 50.116C67.4732 50.1203 67.399 50.0964 67.3406 50.049C67.2822 50.0016 67.2438 49.9342 67.2332 49.8601C67.2332 49.8601 67.2332 49.8032 67.2332 49.7677C67.0062 50.0308 66.6902 50.2027 66.3445 50.2511C65.9104 50.2645 65.4886 50.1067 65.1716 49.8122C64.8546 49.5178 64.6681 49.1107 64.6532 48.6801C64.5725 48.2518 64.6637 47.8092 64.9074 47.4466C65.151 47.0841 65.5279 46.8304 65.9575 46.7395C66.3019 46.7033 66.6474 46.7972 66.925 47.0025C66.9215 46.9742 66.9215 46.9455 66.925 46.9172C66.92 46.8798 66.9225 46.8418 66.9325 46.8054C66.9424 46.769 66.9596 46.7349 66.9829 46.7052C67.0062 46.6754 67.0353 46.6505 67.0684 46.632C67.1016 46.6135 67.1381 46.6017 67.1758 46.5973C67.2525 46.5891 67.3294 46.6102 67.3907 46.6565C67.452 46.7028 67.4931 46.7707 67.5055 46.8461L67.828 49.7961C67.832 49.8749 67.8052 49.9522 67.7531 50.0118C67.701 50.0714 67.6277 50.1088 67.5485 50.116ZM66.0077 47.2726C65.7295 47.354 65.493 47.5376 65.3466 47.7859C65.2001 48.0342 65.1546 48.3286 65.2193 48.609C65.291 49.2772 65.7712 49.7748 66.28 49.7179C66.5577 49.6381 66.794 49.4559 66.9406 49.2087C67.0871 48.9616 67.1328 48.6682 67.0683 48.3887C66.9967 47.7134 66.5452 47.2087 66.0077 47.2726Z" fill="white"/>
</g>
<g style="mix-blend-mode:multiply">
<path d="M70.1715 49.7322C69.4548 49.8033 69.0678 49.8389 68.3368 49.9242C68.3368 49.846 68.3368 49.8104 68.3368 49.7322H68.5088C68.556 49.7278 68.6018 49.7141 68.6436 49.692C68.6854 49.6699 68.7223 49.6398 68.7523 49.6035C68.7823 49.5671 68.8047 49.5252 68.8183 49.4802C68.8319 49.4352 68.8363 49.388 68.8314 49.3413C68.7382 48.4527 68.688 48.012 68.5877 47.1234C68.5832 47.0751 68.5691 47.0281 68.546 46.9853C68.5229 46.9424 68.4913 46.9047 68.4532 46.8742C68.4151 46.8437 68.3712 46.8211 68.3242 46.8077C68.2771 46.7944 68.2278 46.7905 68.1792 46.7964L67.9785 46.8178C67.9785 46.7467 67.9785 46.704 67.9785 46.633L69.6699 46.4552C69.7879 46.4262 69.9107 46.4219 70.0305 46.4425C70.1502 46.4632 70.2644 46.5084 70.3655 46.5753C70.4667 46.6422 70.5527 46.7293 70.618 46.831C70.6833 46.9328 70.7265 47.0469 70.7449 47.1661C70.7583 47.3127 70.7255 47.4598 70.6511 47.5871C70.5766 47.7145 70.4641 47.8157 70.3292 47.8769C70.5309 47.9013 70.7185 47.9924 70.8616 48.1356C71.0046 48.2788 71.0948 48.4656 71.1175 48.666C71.1272 48.7978 71.1104 48.9303 71.0679 49.0557C71.0254 49.181 70.9581 49.2967 70.8701 49.396C70.782 49.4952 70.6749 49.5761 70.5549 49.6338C70.435 49.6916 70.3046 49.725 70.1715 49.7322ZM69.591 46.6898L69.1037 46.7396C69.161 47.223 69.1897 47.4504 69.2399 47.948L69.7415 47.8983C69.8243 47.8909 69.9044 47.8655 69.9762 47.824C70.048 47.7824 70.1097 47.7257 70.1569 47.6579C70.204 47.59 70.2356 47.5127 70.2493 47.4314C70.263 47.3501 70.2584 47.2668 70.236 47.1874C70.2291 47.1117 70.2066 47.0382 70.1699 46.9715C70.1331 46.9048 70.083 46.8463 70.0225 46.7997C69.962 46.753 69.8925 46.7192 69.8183 46.7003C69.744 46.6814 69.6667 46.6778 69.591 46.6898ZM69.892 48.1115L69.2614 48.1755C69.3115 48.6375 69.3402 48.8863 69.3904 49.3342L69.9923 49.2702C70.073 49.2689 70.1525 49.2512 70.2259 49.2182C70.2993 49.1851 70.3651 49.1374 70.4191 49.0781C70.4732 49.0187 70.5143 48.949 70.54 48.8732C70.5658 48.7974 70.5755 48.7172 70.5686 48.6375C70.5617 48.5578 70.5383 48.4804 70.4999 48.41C70.4616 48.3397 70.409 48.2779 70.3456 48.2286C70.2821 48.1793 70.2091 48.1434 70.1311 48.1233C70.053 48.1031 69.9717 48.0991 69.892 48.1115Z" fill="white"/>
</g>
<g style="mix-blend-mode:multiply">
<path d="M74.3855 49.4692C74.3084 49.4715 74.2333 49.445 74.1749 49.395C74.1165 49.345 74.0791 49.2751 74.0702 49.1991V49.1067C73.8474 49.3666 73.5311 49.5298 73.1887 49.5616C72.7486 49.5582 72.3268 49.3862 72.0116 49.0815C71.6964 48.7768 71.5121 48.363 71.4974 47.9267C71.456 47.7174 71.457 47.5021 71.5003 47.2932C71.5437 47.0843 71.6286 46.8861 71.75 46.7101C71.8714 46.5341 72.0269 46.3839 72.2075 46.2681C72.388 46.1523 72.5901 46.0734 72.8017 46.0359C73.1508 46.009 73.4971 46.1158 73.7692 46.3344C73.7692 46.3344 73.7692 46.2775 73.7692 46.242C73.7653 46.205 73.7689 46.1676 73.7798 46.132C73.7907 46.0964 73.8088 46.0634 73.8328 46.0349C73.8569 46.0064 73.8865 45.983 73.9199 45.966C73.9533 45.9491 73.9898 45.939 74.0272 45.9363C74.1048 45.9303 74.1818 45.9543 74.2419 46.0034C74.302 46.0524 74.3407 46.1227 74.3497 46.1993C74.4859 47.3793 74.5504 47.9765 74.6794 49.1565C74.6823 49.1965 74.6769 49.2367 74.6635 49.2745C74.6501 49.3124 74.6289 49.3471 74.6013 49.3765C74.5737 49.4058 74.5403 49.4292 74.5032 49.4452C74.466 49.4612 74.426 49.4693 74.3855 49.4692ZM72.8447 46.569C72.5657 46.6394 72.3262 46.8166 72.1785 47.0616C72.0308 47.3067 71.9869 47.5998 72.0564 47.8769C72.128 48.5878 72.6082 49.064 73.117 49.0214C73.3955 48.9525 73.6349 48.7768 73.7828 48.5329C73.9306 48.2889 73.9747 47.9967 73.9054 47.7206C73.8337 47.0453 73.3535 46.5263 72.8447 46.569Z" fill="white"/>
</g>
<g style="mix-blend-mode:multiply">
<path d="M77.9042 49.2417C77.8308 49.2461 77.7584 49.2229 77.7013 49.1768C77.6443 49.1308 77.6067 49.0651 77.5961 48.9929L77.4527 47.7063L75.8832 47.7987C75.8832 48.147 75.9406 48.3247 75.9764 48.6731C75.98 48.7242 75.9939 48.774 76.0172 48.8198C76.0405 48.8655 76.0729 48.9061 76.1123 48.9392C76.1517 48.9723 76.1974 48.9973 76.2467 49.0126C76.2959 49.028 76.3478 49.0333 76.3992 49.0285H76.5784C76.5819 49.0924 76.5819 49.1565 76.5784 49.2204L75.0591 49.3199C75.0626 49.256 75.0626 49.1919 75.0591 49.128H75.2311C75.2797 49.1257 75.3272 49.1131 75.3706 49.0912C75.4139 49.0693 75.4521 49.0385 75.4826 49.0009C75.5131 48.9633 75.5352 48.9197 75.5474 48.873C75.5596 48.8263 75.5617 48.7775 75.5536 48.7299C75.4604 47.8485 75.4102 47.4078 75.3171 46.5263C75.3126 46.4758 75.298 46.4267 75.2743 46.3818C75.2506 46.3369 75.2181 46.2972 75.1788 46.2648C75.1395 46.2324 75.0941 46.208 75.0453 46.1931C74.9964 46.1783 74.9451 46.1731 74.8942 46.178H74.7366C74.7366 46.0998 74.7366 46.0643 74.7366 45.9861L76.2559 45.8794C76.2594 45.9434 76.2594 46.0074 76.2559 46.0714H76.0982C76.0492 46.0739 76.0012 46.0865 75.9572 46.1082C75.9132 46.13 75.8742 46.1605 75.8426 46.1978C75.811 46.2351 75.7875 46.2785 75.7735 46.3253C75.7596 46.372 75.7554 46.4211 75.7614 46.4694C75.7972 46.8106 75.8187 46.9741 75.8546 47.3153L77.4312 47.2158C77.3739 46.7253 77.3452 46.505 77.2951 45.9861C77.2921 45.9513 77.2964 45.9163 77.3076 45.8832C77.3188 45.8502 77.3367 45.8197 77.3602 45.7937C77.3836 45.7678 77.4122 45.7469 77.4442 45.7323C77.4761 45.7177 77.5107 45.7097 77.5459 45.7088C77.6214 45.7025 77.6965 45.7245 77.7562 45.7707C77.816 45.8168 77.8561 45.8835 77.8684 45.9576C77.9974 47.159 78.0691 47.7632 78.1981 48.9716C78.1837 49.1209 78.0117 49.2346 77.9042 49.2417Z" fill="white"/>
</g>
<g style="mix-blend-mode:multiply">
<path d="M81.4732 49.0995C81.3945 49.1022 81.3175 49.0762 81.2568 49.0264C81.196 48.9767 81.1558 48.9066 81.1436 48.8294C81.0361 47.8698 80.9859 47.4077 80.8784 46.441L79.5024 48.3176C79.5058 48.3744 79.5058 48.4314 79.5024 48.4882C79.5115 48.5926 79.5618 48.6892 79.6423 48.7571C79.7228 48.8249 79.827 48.8586 79.9324 48.8507H80.0829C80.0864 48.9146 80.0864 48.9787 80.0829 49.0426C79.4809 49.0426 79.1727 49.0426 78.5636 49.1066C78.5671 49.0427 78.5671 48.9786 78.5636 48.9147H78.7284C78.7771 48.9146 78.8251 48.9038 78.8691 48.883C78.9131 48.8623 78.9519 48.8321 78.9827 48.7948C79.0136 48.7574 79.0357 48.7137 79.0475 48.6668C79.0592 48.62 79.0604 48.5711 79.0509 48.5237C78.9577 47.6423 78.9076 47.2016 78.8144 46.3201C78.8052 46.217 78.756 46.1215 78.6771 46.0538C78.5981 45.9862 78.4957 45.9516 78.3916 45.9576H78.2339C78.2339 45.8865 78.2339 45.8438 78.2339 45.7728L79.7532 45.7017C79.7567 45.7656 79.7567 45.8297 79.7532 45.8936H79.5956C79.5465 45.8932 79.498 45.9032 79.4532 45.923C79.4084 45.9427 79.3683 45.9718 79.3357 46.0081C79.3032 46.0445 79.2788 46.0873 79.2643 46.1338C79.2498 46.1802 79.2454 46.2292 79.2516 46.2775C79.3161 46.8248 79.3447 47.102 79.4021 47.6494C79.9467 46.9385 80.2119 46.5263 80.7566 45.787C80.8211 45.6946 80.9142 45.5666 81.0432 45.5666C81.0826 45.5627 81.1224 45.5669 81.1601 45.579C81.1977 45.591 81.2325 45.6107 81.2621 45.6367C81.2917 45.6628 81.3156 45.6946 81.3322 45.7303C81.3488 45.7659 81.3578 45.8046 81.3586 45.8438C81.4876 47.0381 81.5521 47.6281 81.6882 48.8152C81.6931 48.8803 81.674 48.9451 81.6345 48.9974C81.595 49.0496 81.5377 49.0859 81.4732 49.0995Z" fill="white"/>
</g>
<g style="mix-blend-mode:multiply">
<path d="M85.114 49.0499C85.0335 49.048 84.9561 49.0187 84.8948 48.9669C84.8334 48.9151 84.7919 48.844 84.7772 48.7655C84.6768 47.8059 84.6267 47.3438 84.5192 46.3771L83.1432 48.2395C83.1432 48.3106 83.1432 48.3461 83.1432 48.4101C83.1522 48.5144 83.201 48.6114 83.2795 48.6814C83.358 48.7513 83.4605 48.789 83.566 48.7868H83.7452C83.7487 48.8508 83.7487 48.9148 83.7452 48.9788H82.2258C82.2258 48.9006 82.2258 48.865 82.2258 48.7868H82.3978C82.4459 48.7889 82.4937 48.7801 82.5378 48.7611C82.5819 48.742 82.621 48.7132 82.6521 48.6768C82.6832 48.6405 82.7055 48.5975 82.7174 48.5513C82.7292 48.5051 82.7302 48.4568 82.7203 48.4101C82.6272 47.5215 82.577 47.0808 82.4767 46.1994C82.4693 46.0957 82.4221 45.9987 82.3447 45.9286C82.2674 45.8585 82.1658 45.8205 82.061 45.8226H81.9033C81.9033 45.7444 81.9033 45.7089 81.9033 45.6307H83.4227C83.4227 45.7089 83.4227 45.7444 83.4227 45.8226H83.2578C83.2094 45.821 83.1612 45.83 83.1166 45.849C83.0721 45.868 83.0323 45.8965 83.0001 45.9325C82.968 45.9685 82.9442 46.011 82.9305 46.0572C82.9168 46.1033 82.9136 46.1519 82.921 46.1994C82.9855 46.7538 83.0142 47.024 83.0715 47.5713C83.6162 46.8605 83.8813 46.4766 84.4188 45.7587C84.4905 45.6662 84.5837 45.5383 84.7127 45.5383C84.7932 45.5363 84.8713 45.5658 84.9302 45.6202C84.9892 45.6747 85.0243 45.7499 85.028 45.8297C85.157 47.024 85.2215 47.6211 85.3577 48.8082C85.3527 48.8706 85.3255 48.9293 85.2808 48.9736C85.2361 49.0179 85.177 49.045 85.114 49.0499ZM83.4943 44.9127C83.2585 44.919 83.025 44.8647 82.8166 44.7551C82.6081 44.6455 82.4318 44.4843 82.3047 44.2872C82.2802 44.258 82.2629 44.2236 82.2539 44.1867C82.2449 44.1499 82.2445 44.1114 82.2528 44.0744C82.2611 44.0373 82.2779 44.0027 82.3018 43.973C82.3256 43.9434 82.3561 43.9195 82.3907 43.9034C82.4643 43.8816 82.5432 43.8861 82.6139 43.9159C82.6845 43.9458 82.7424 43.9991 82.7777 44.0668C82.8408 44.1847 82.9361 44.2826 83.0527 44.3492C83.1693 44.4158 83.3025 44.4485 83.437 44.4436C83.5649 44.453 83.6923 44.4196 83.7989 44.3488C83.9054 44.2779 83.9849 44.1736 84.0247 44.0526C84.0342 44.0179 84.051 43.9855 84.074 43.9577C84.097 43.9298 84.1257 43.9071 84.1582 43.891C84.1907 43.8749 84.2262 43.8658 84.2625 43.8643C84.2987 43.8627 84.3349 43.8688 84.3687 43.882C84.4062 43.8937 84.4409 43.9131 84.4703 43.939C84.4998 43.9649 84.5234 43.9966 84.5397 44.0322C84.5559 44.0678 84.5644 44.1063 84.5646 44.1454C84.5647 44.1844 84.5566 44.2231 84.5407 44.2588C84.452 44.459 84.305 44.6282 84.1185 44.7448C83.932 44.8613 83.7146 44.9198 83.4943 44.9127Z" fill="white"/>
</g>
</g>
<defs>
<clipPath id="clip0">
<rect width="85.3577" height="58.9945" fill="white"/>
</clipPath>
</defs>
</svg>
